<svg version="1.1" xmlns="http://www.w3.org/2000/svg" viewBox="0 0 2314.083511352539 1411.737570371153" width="2314.083511352539" height="1411.737570371153" filter="invert(93%) hue-rotate(180deg)">
  <!-- svg-source:excalidraw -->
  
  <defs>
    <style>
      @font-face {
        font-family: "Virgil";
        src: url("https://excalidraw.com/Virgil.woff2");
      }
      @font-face {
        font-family: "Cascadia";
        src: url("https://excalidraw.com/Cascadia.woff2");
      }
    </style>
  </defs>
  <rect x="0" y="0" width="2314.083511352539" height="1411.737570371153" fill="#ffffff"></rect><g stroke-opacity="0.2" fill-opacity="0.2" stroke-linecap="round" transform="translate(206.66664123535156 10) rotate(0 558.9583206176758 153.9583396911621)"><path d="M0 0 C0 0, 0 0, 0 0 M0 0 C0 0, 0 0, 0 0 M0.07 6.73 C1.78 4.98, 2.88 3.69, 4.97 -0.27 M-0.66 6.49 C1.09 4.22, 2.77 2.78, 4.77 0.32 M1.69 12.98 C2.48 8.37, 5.2 4.43, 11.04 -0.24 M0.18 11.29 C2.34 9.4, 4.98 6.4, 10.64 0.71 M1.33 16.68 C5.2 13.26, 8.41 6.24, 16.77 0.22 M-1.07 17.52 C4.89 14.77, 7.31 9.47, 14.8 0.43 M1.47 24.4 C8.19 14.52, 16.72 5.31, 21.17 -0.94 M0.41 23.74 C8.19 15.79, 15.11 6.17, 20.4 0.36 M-1.52 28.64 C6.81 22.32, 10.74 16.89, 26.55 -0.58 M-0.54 31.44 C9.51 19.45, 17.74 10.33, 26.75 1.06 M1.26 35.35 C10.16 24.97, 19.97 11.95, 32.78 -1.67 M0.65 36.57 C9.92 24.74, 18.91 14.96, 31.03 0.44 M-0.75 41.83 C11.7 27.09, 27.31 10.75, 35.7 2.15 M0.99 42.43 C12.24 28.75, 24.31 15.4, 36.71 -0.19 M0.05 48.46 C13.53 32.27, 26.66 19.89, 41.95 -0.03 M-0.29 49.69 C9.85 38.76, 19.39 27.69, 41.55 0.59 M-0.49 52.82 C18.32 31.92, 36.55 11.08, 47.28 -0.94 M-0.41 53.9 C10.59 44.1, 20.79 31.49, 48.05 0.16 M0.12 61.22 C15.83 41.96, 30.49 23.73, 51.35 -1.71 M-0.63 61.29 C18.18 39.21, 35.81 19.96, 53.4 0.59 M1.12 66.8 C20.22 45.17, 39.61 24.92, 60.03 -0.4 M-0.89 68.3 C17.8 46.32, 36.19 26.45, 58.02 0.45 M0.09 73.24 C14.72 55.25, 32.63 35.69, 64.27 1.41 M-0.06 73.61 C18.46 50.88, 36.05 29.97, 63.44 -0.45 M0.57 80.51 C23.4 51.96, 45.28 22.94, 70.34 2.09 M0.78 79.17 C25.28 49.04, 52.51 20, 68.83 0.8 M0.2 84.96 C28.87 53.3, 55.5 20.41, 74.68 1.33 M0.69 84.73 C30.26 51.66, 59.42 18.31, 74.95 -1.1 M-0.95 92.82 C24.95 62.8, 52.69 32.37, 78.23 -0.32 M0.3 90.64 C23.63 61.91, 50.04 34.63, 78.6 0.2 M-0.27 96.4 C16.31 77.81, 34.22 57.84, 85.19 -0.13 M0.14 98.33 C26.25 65.36, 53.83 33.86, 84.62 -0.59 M-0.96 103.69 C32.57 70.22, 62.5 33.77, 89.4 -1.63 M-0.58 103.4 C21.87 79.23, 42.11 56.46, 90.36 -0.56 M1.54 110.18 C31.96 73.52, 66.62 36.12, 97.09 -1.29 M-0.29 109.63 C25.11 78.91, 52.08 48.9, 95.6 0.15 M1.7 116.91 C37.03 75.03, 69.59 33.96, 101.21 -0.99 M0.33 116.49 C40.37 71.14, 78.36 27.76, 101.07 0.15 M-1.79 122.02 C29.3 87.21, 56.29 56.58, 108.29 1.35 M0.76 120.95 C41.83 75.59, 84.12 28.24, 106.41 -0.44 M0.17 126.88 C35.4 89.11, 71.96 46.38, 112.67 -0.72 M-0.01 129.01 C29.25 95.07, 58.45 60.95, 110.62 -0.2 M0.63 135.75 C42.07 84.26, 85.47 35.66, 114.73 -0.08 M0.24 133.69 C38 90.88, 74.8 48.77, 115.38 1.12 M0.23 141.56 C33.02 97.49, 67.53 60.66, 122.44 -0.28 M-0.27 140.14 C35.46 100.37, 70.54 60.95, 122.81 0.65 M-0.67 146.01 C41.54 96.54, 86.57 47.39, 126.96 2.11 M1.01 146.07 C34.01 105.4, 70.01 63.27, 126.21 -0.58 M-1.48 152.98 C36.44 109.18, 75.95 65.42, 131.01 1.51 M0.33 152.62 C41.47 104.27, 82.11 59.15, 132.38 0.75 M-1.92 157.25 C50.76 102.72, 98.75 45, 136.39 1.54 M0.15 158.89 C53.45 96.56, 107.97 35.1, 137.1 -0.32 M-1.48 164.5 C40.04 121.72, 78.3 75.42, 142.01 1.22 M-0.19 164.81 C42.21 114.69, 86.28 63.37, 143.84 -0.62 M1.16 169.88 C40.95 125.34, 78.69 81.77, 147.25 1.42 M0.71 171.44 C49.63 114.03, 97.99 57.94, 148.14 -0.49 M0.44 176.88 C51.1 117.14, 105.09 58.34, 153.19 -0.04 M1.06 176.47 C47.62 120.72, 95.89 65.68, 153.21 0.65 M-1.05 183.76 C41.16 137.36, 80.27 92.59, 158.77 0.51 M0.77 183.36 C42.94 132.57, 84.48 82.09, 158.24 0.75 M-0.58 188.24 C54.66 128.15, 108.31 64.96, 165.59 0.98 M-0.23 190.03 C44.5 139.5, 87.64 88.57, 165.16 -0.9 M-0.7 193.99 C57.49 131.13, 114.58 65.45, 170.77 -0.66 M0.81 194.34 C62.89 122.62, 125.36 49.82, 169.16 -0.46 M-0.06 202.53 C42.34 155.13, 84.3 106.16, 175.1 -1.62 M-0.09 201.76 C62.03 130.15, 124.2 57.42, 175.06 -0.72 M1.05 206.26 C48.67 147.13, 99.43 89, 178.95 1.39 M0.44 207.07 C50.25 149.19, 98.8 93.63, 179.66 0.56 M0.05 212.93 C67.07 137.69, 135.26 58.95, 187.02 -1.73 M0.41 213.79 C56.72 149.89, 112.52 83.88, 186.39 -0.31 M-0.73 219.4 C55.36 151.64, 114.7 86.13, 192.08 -0.98 M0.09 219.29 C73.74 134.37, 147.1 50.3, 191.22 -0.12 M-0.92 226 C44.21 177.11, 85.5 130.88, 195.43 0.76 M0.49 225.33 C48.96 167.99, 98.28 110.58, 197 0.36 M-1.45 230.87 C71.89 147.78, 143.41 64.81, 202.29 0.01 M-0.22 231.08 C43.57 178.54, 88.57 127.09, 201.09 0.1 M1.19 238.81 C76.28 153.12, 150 67.82, 206.29 -0.63 M-0.22 237.36 C60.46 169.83, 119.74 101.57, 206.38 -0.93 M0.83 242.48 C48.2 188.67, 97.42 132.84, 211.63 1.18 M0.49 243.75 C55.62 177.89, 112.43 112.04, 212.06 0.23 M-1.16 250.81 C82.07 153.41, 165.24 59.16, 217.7 0.06 M-0.38 249.66 C71.33 168.41, 139.98 88.65, 217.46 -0.72 M1.39 255.73 C56.81 190.78, 116.19 124.65, 223.64 -0.31 M0.21 256.31 C65.96 181.53, 129.32 107.25, 222.81 -0.38 M-0.33 261.93 C80.59 168.57, 160.79 78.66, 227.78 -0.7 M-0.59 262.72 C45.35 210.13, 90.69 157.76, 228.76 -0.78 M1.13 268.57 C53.16 208.58, 106 149.49, 234.04 -0.53 M-0.26 268.45 C55.31 203, 111.71 138.33, 233.1 -0.12 M1.27 275.31 C79.18 185.14, 155.73 95.35, 237.82 0.42 M0.24 274.78 C53.24 216.33, 104.01 157.52, 237.68 0.55 M-1.27 280.53 C59.37 212.81, 118.59 145.59, 243.3 -1.16 M-0.3 280.58 C85.23 182.03, 171.05 83.58, 244.25 0.08 M1.34 285.63 C67.87 207.45, 134.81 131.7, 248.21 0.96 M0.23 286.33 C92.63 179.46, 184.73 74.03, 248.67 0.61 M-0.54 293.09 C72.75 209.02, 144.53 127.55, 254.57 -0.21 M0.04 292.53 C64.31 220.28, 127.59 147.68, 254.63 0.25 M0.64 298.71 C81.47 205.18, 164.1 111.67, 258.42 1.36 M-0.2 298.56 C80.81 204.83, 161.64 111.29, 259.62 0.26 M0.15 305.52 C63.86 230.72, 128.08 157.51, 265.24 -0.59 M-0.5 305 C60.31 237.54, 119 169.14, 265.42 -0.55 M2.58 309 C85.88 212.28, 170.6 115.45, 270.61 0.73 M1.91 308.93 C62.14 239.74, 123.03 169.47, 270.38 0.02 M7.22 308.37 C80.59 223.29, 153.56 139.98, 275.6 0.58 M6.22 309.74 C104.19 198.43, 202.48 85.7, 276.18 -0.23 M12.96 309.29 C89.08 220.75, 165.74 131.95, 281.11 0.9 M12.37 309.29 C97.81 208.56, 184.84 108.16, 280.22 0.26 M16.66 309.8 C85.63 227.49, 154.6 147.84, 287.36 -0.64 M17.37 309.06 C80 234.83, 142.94 163.05, 286.77 0.07 M21.99 309.55 C119.16 199.52, 216.04 87.18, 290.62 0.74 M23.56 309.06 C117.12 202.11, 209.34 95.7, 291.66 0.72 M27.29 310 C117.57 203.57, 209.47 101.56, 295.96 -0.56 M27.72 309.38 C133.77 189.38, 237.43 70.05, 296.72 -0.02 M33.22 308.81 C102.13 233.26, 168.8 154.79, 302.89 -0.37 M32.71 309.69 C104.8 224.46, 176.44 141.39, 302.19 -0.04 M38.39 309.52 C138.77 192.19, 240.53 74.66, 307.13 0.02 M38.67 309.23 C107.37 232.04, 174.39 154.76, 307.97 -0.68 M42.61 310.31 C140.28 199.92, 236.75 86.82, 312.68 0.72 M43.69 309.45 C99.1 245.74, 154.91 181.05, 312.59 0.28 M49.06 308.29 C127.41 218.06, 207.82 127.6, 318.15 -0.89 M49.36 308.67 C111.63 236.51, 174.76 163.53, 317.78 -0.28 M53.31 309.61 C131.4 217.2, 208.88 126.93, 322.26 1.03 M54.77 309.59 C136.31 215.95, 218.04 121.34, 323.04 0.59 M59.3 308.87 C152.85 201.83, 247.39 91.64, 329.96 -0.95 M59.46 308.78 C128.54 233.37, 195.13 156.04, 329.12 -0.3 M63.99 310.19 C155.69 204.91, 246.37 100.95, 333.72 -0.89 M65.11 309.7 C129.2 237.03, 192.2 163.24, 333.67 0.25 M71.13 308.81 C135.27 232.42, 199.97 157.07, 339.47 -1.23 M70.78 308.89 C166.79 197.15, 264.88 84.56, 339.13 -0.39 M75.9 309.98 C176.28 192.36, 278.67 75.3, 343.46 0.61 M75.74 309 C156.95 214.39, 240.66 118.39, 344.01 -0.36 M80.88 308.32 C140.1 244.02, 196.64 176.99, 348.76 0.09 M81.25 309.35 C174.36 203.21, 266.38 98.15, 348.96 0.74 M85.11 308.98 C189.06 189.74, 292.28 71.54, 354.27 -0.46 M85.74 309.08 C186.13 196.25, 285.39 81.13, 354.67 -0.41 M91.27 309.16 C184.51 203.1, 277.61 94.6, 360.1 1.37 M92.06 308.73 C181.62 205.91, 271.57 103.13, 360.28 0.64 M96.9 310.45 C185.26 204.68, 277.34 100.63, 365.47 -0.85 M97.16 308.97 C173.62 220.72, 251.04 131.87, 365.65 -0.28 M101.57 309.18 C174.15 224.22, 245.53 141.3, 370.81 0.94 M102.68 308.85 C199.17 196.91, 297.36 83.25, 370.85 0.41 M106.97 308.74 C183.08 218.38, 262.04 130.11, 376.2 -0.13 M107.88 308.97 C182.25 224.15, 255.85 140.49, 376.9 0.14 M113.03 309.96 C180.45 232.39, 249.56 154.46, 381.42 -0.39 M112.56 308.65 C179.67 232.53, 247.2 155.59, 380.93 0.01 M118 310.21 C198.26 218.33, 276.04 128.01, 386.49 0.4 M117.68 309.04 C216.99 197.93, 315.47 85.59, 386.71 -0.28 M123.42 309.17 C203.34 215.64, 284.44 123.46, 391.75 0.3 M123.87 309.2 C198.62 222.51, 273.85 135.85, 392.15 0.71 M129.73 310.15 C206.29 219.37, 283.61 130.19, 398.4 -1.2 M128.76 309.27 C218.34 205.96, 308.44 101.73, 397.69 0.02 M134.72 308.24 C208.55 224.76, 281.01 140.84, 401.96 0.32 M134.3 308.7 C221.96 205.41, 311.08 102.58, 402.51 0.07 M140.07 309.25 C199.41 241.12, 258.71 171.46, 408.27 0.18 M139.69 309.43 C245.07 188.88, 351.48 66.08, 408.58 0.3 M144.76 309.81 C240.87 198.4, 338.48 86.09, 413.69 -0.88 M144.72 309.34 C243.14 196.83, 341.8 83, 413.54 0.28 M150.56 308.12 C237.03 210.47, 322.73 110.65, 418.9 0.24 M150.39 309.43 C225.27 222.45, 300.91 136.27, 419.16 0.25 M155.37 309.22 C210.09 243.93, 265.62 181.08, 424.52 -0.64 M154.61 309.28 C243.29 208.58, 331.51 107.57, 424.24 -0.18 M160.93 308.39 C265.28 186.6, 373.52 63.42, 429.55 -0.48 M160.46 308.85 C255.56 198.42, 352.05 87.64, 429.73 -0.49 M165.1 308.96 C269.3 188.77, 372.28 69.55, 433.51 -0.81 M165.3 309.96 C229.14 236.31, 293.44 162.8, 434.96 -0.43 M170.16 309.39 C271.89 195.56, 372.57 79.93, 439.32 0.14 M170.82 309.62 C260.64 203.68, 352.39 99.07, 440.55 -0.76 M175.17 310.1 C264.9 209.27, 351.7 109.76, 444.46 0.02 M176.52 309.21 C257.12 213.13, 340.87 118.24, 444.63 0.02 M182 309.28 C274.47 200.49, 369.02 92.87, 450.42 0.27 M182.09 308.91 C278.81 199.7, 374.26 89.78, 451.27 -0.58 M187.72 309.78 C289.27 192.87, 391.54 75.7, 456.05 0.92 M186.33 309.18 C249.13 239.84, 310.38 169.82, 455.71 -0.33 M192.85 308.32 C278.67 207.31, 366.08 107.27, 460.45 -0.34 M192.9 309.57 C267.05 220.41, 342.52 133.87, 461.52 -0.62 M198.1 308.93 C293.61 195.87, 392.12 85.58, 467.32 -0.18 M197.12 309.15 C271.52 225.48, 344.48 142.18, 465.92 -0.06 M203.87 310 C282.8 220.35, 361.2 129.74, 471.7 -0.73 M202.68 308.59 C262.4 241.52, 320.49 175.06, 471.86 0.2 M206.97 308.91 C268.7 242.13, 326.62 175.08, 476.54 -1.05 M208.5 309.45 C313.31 188.24, 419.98 66.96, 476.56 0.22 M213.29 308.9 C300.57 208.02, 387.58 106.76, 481.61 -0.65 M213.29 308.62 C320.48 187.08, 427.46 63.72, 481.48 0.08 M219.18 308.26 C311.94 205.37, 404.24 97.92, 486.8 -0.67 M218.94 309.72 C309.72 205.79, 400.66 101.17, 487.46 -0.47 M224.1 309.43 C305.67 213.37, 390.34 118.27, 493.18 0.7 M224.06 308.66 C303.63 215.96, 383.36 125.42, 492.52 0.48 M229.54 310.39 C300.33 226.67, 371.46 143.29, 498.18 -0.27 M229.6 309.52 C318 209.27, 404.66 108.85, 498.71 0.38 M234.14 309.33 C288.96 246.17, 345.08 182.77, 503.26 0.52 M234.57 308.99 C318.62 213.79, 402.21 118.56, 503.33 0.33 M239.21 309.26 C335.06 196.08, 433.8 85, 508.99 -0.1 M239.43 308.89 C337.08 199.65, 432.55 89.75, 508.99 -0.58 M246.02 309.52 C344.94 193.89, 444.58 78.15, 514.02 0.86 M245.16 308.39 C319.41 225.74, 391.08 142.53, 513.85 0.7 M250.31 310.31 C345.14 202.47, 438.23 95.27, 518.95 -0.45 M250.05 308.83 C336.74 207.03, 424.54 106.52, 519.4 0.05 M257.22 308.64 C325.72 229.22, 395.08 148.31, 525.25 0.96 M256.43 309.17 C351.23 201.07, 444.5 93.35, 525.1 -0.19 M260.35 309.52 C364.96 191.24, 468.77 73.24, 530.36 -0.65 M260.87 309.74 C340.46 217.22, 420.66 123.96, 530.7 -0.16 M267.09 309.34 C348.77 214.15, 431.85 118.3, 535.42 0.49 M265.77 309.59 C358.59 202.47, 450.59 96.61, 535.28 0.17 M272.15 309.96 C373.32 194.61, 472.89 78.6, 540.38 -0.08 M271.77 309.7 C334.75 237.38, 397.11 165.32, 540.63 -0.2 M276.26 309.67 C347.6 231.14, 417.32 151.18, 545.06 0.73 M277.21 309.13 C379.62 191.12, 483.25 71.92, 545.88 0.37 M281.75 309.66 C352.44 231.07, 421.1 151.38, 550.94 0.68 M282.63 309.45 C351.92 226.29, 422.07 145.34, 550.97 -0.5 M288.11 308.78 C350.05 237.42, 413.58 165.69, 555.58 -1.02 M286.97 309.17 C354.22 235.83, 419.35 161.21, 556.68 -0.02 M292.68 309.29 C380.3 210.64, 464.58 111.2, 561.01 -1.22 M292.7 309.64 C349.22 245.2, 404.69 182.38, 561.55 -0.23 M297.17 309.38 C368.07 229.47, 437.13 151.76, 565.99 0.74 M297.65 309.43 C355.34 243.89, 412.18 178.92, 567.42 0.14 M303.91 308.91 C382.33 217.44, 460.15 127.16, 572.14 -1.05 M303.41 309.17 C375.67 227, 448.06 144.42, 572.99 0 M309.29 308.58 C399.7 204.19, 490.12 100.45, 578.43 0.94 M308.26 309.22 C369.22 240.64, 428.67 171.97, 577.23 -0.31 M315.31 309.04 C380.76 232.55, 446.15 157.96, 582.27 0.03 M314.48 309.04 C402.75 206.92, 491.36 105.42, 582.16 0.48 M318.62 310.03 C423.19 190.94, 525.35 71.45, 588.26 0.49 M319.11 309.19 C409.3 206.03, 500.11 100.54, 588.52 0.13 M324.34 309.55 C402.7 217.54, 479.28 127.55, 593.89 -0.41 M324.51 308.52 C395.91 227.36, 466.27 146.32, 593.11 -0.02 M330.65 309.57 C405.09 223.97, 481.26 136.67, 598.32 0.78 M330.23 309.56 C400.09 229.54, 470.33 148.76, 598.71 -0.44 M336.01 308.58 C410.46 222.02, 487.74 133.11, 604.56 -0.43 M335.88 308.99 C393.59 243.6, 450.88 177.34, 603.73 0.83 M341.35 309.56 C401.95 238.81, 464.35 168.42, 609.09 0.33 M340.74 309.67 C398.63 242.23, 455.99 176.12, 609.55 -0.16 M346.31 308.06 C431.21 211.8, 518.2 111.4, 615.07 -0.02 M346.55 308.95 C431.18 210.88, 517.16 112.39, 614.47 -0.19 M351.42 308.99 C405.02 247.29, 459.35 184.62, 619.75 0.36 M351.67 309.57 C422.29 227.59, 491.61 147.07, 620.01 -0.56 M356.54 308.14 C422.24 234.85, 484.35 161.45, 625.47 0.75 M357.18 309.05 C461.18 187.07, 567.15 65.65, 624.89 0.5 M360.85 308.94 C435.95 224.49, 510.06 138.42, 631.48 -0.77 M362.08 309.51 C468.7 185.65, 575.24 63.15, 631.24 -0.53 M367.85 308.36 C453.8 210.83, 539.73 111.45, 636.16 0.61 M367.27 309.27 C430.55 234.67, 494.1 162.02, 635.34 0.6 M372.18 309.31 C456.69 213.67, 541.93 118.23, 641.99 0.17 M372.9 309.35 C439.62 230.74, 507.28 153.51, 641.56 -0.14 M377.19 309.49 C479.8 190.46, 585.21 71.02, 646.81 0.4 M377.29 309.15 C465.6 208.01, 553.26 106.98, 646.42 0.2 M382.8 309.94 C453.01 226.44, 526.25 141.81, 653.19 -0.83 M383.1 309.14 C487.27 192.07, 589.78 73.28, 652.57 -0.11 M387.72 309.36 C471.14 214.61, 555.18 117.39, 657.46 -0.19 M388.54 309.73 C478.32 208.49, 568.08 104.69, 657.28 0.11 M392.69 309.45 C475.36 216.69, 554.57 125.7, 663.51 -0.7 M393.53 309.67 C497.57 189.95, 600.8 70.99, 663.07 -0.15 M399.35 308.56 C478.55 218.66, 558.25 127.17, 667.4 0.6 M398.64 309.82 C506.6 185.82, 614.03 61.92, 667.33 0.22 M405.45 308.58 C466.79 234.81, 529.88 163.33, 673.38 0.78 M404.17 308.59 C507.23 191.42, 610.59 72.38, 672.92 -0.63 M410.24 308.5 C513.89 190.75, 618.75 70.61, 678.48 -1.04 M409.13 309.02 C479.17 230.82, 548.61 150.03, 677.83 0.07 M414.08 309.1 C500.07 210.1, 587.62 112.82, 684.13 -0.11 M414.69 308.7 C505.17 206.03, 595.81 100.4, 683.58 0.21 M419.47 308.81 C522.35 190.33, 626.66 71.72, 689.6 -0.19 M419.87 309.04 C504.95 210.74, 591.28 111.87, 689.22 0.45 M426.22 308.29 C497.96 223.63, 573.89 139.57, 694.74 -1.11 M426.09 308.56 C517.97 202.73, 611.17 96.09, 694.28 0.16 M430.32 308.53 C515.18 213.79, 600.39 114.92, 700.05 0.27 M430.66 309.86 C532.68 192.36, 635.56 73.91, 699.38 -0.4 M436.67 308.84 C493.78 240.68, 552.35 172.54, 704.41 1.25 M435.74 308.57 C521.82 210.19, 607.31 111.88, 704.08 -0.1 M440.39 309.33 C537.78 196.91, 636.8 84.92, 710.57 -0.43 M440.72 309.15 C528.95 207.83, 616.46 107.62, 709.73 0.34 M446.1 308.94 C544.99 198.2, 644.18 86.2, 716.33 0.93 M446.76 309.33 C533.5 208.03, 620.86 107.96, 715.1 0.46 M451.49 310.07 C543.62 203.93, 635.23 97.4, 720.03 0.15 M451.41 309.43 C508.42 246.87, 563.23 182.96, 721.39 -0.38 M457.75 310.02 C541.44 214.91, 623.38 118.94, 726.03 1.23 M457.54 308.84 C525.95 231.93, 594.96 152.69, 725.76 0.68 M461.94 310.05 C522.49 240.74, 580.04 175.03, 731.02 -0.01 M462.42 309.84 C563.09 194.93, 662.1 80.05, 731.3 0.06 M467.48 309 C561.49 199.96, 655.47 92.84, 736.12 -0.33 M467.79 308.6 C555.45 208.07, 642.58 107.18, 736.21 0.18 M472.07 310.15 C574.05 191.18, 679.44 71.16, 742.03 0.25 M473.37 308.87 C567.48 202.59, 660.08 94.53, 742.68 -0.48 M478.17 308.24 C580.11 194.46, 679.33 81.82, 747.9 0.82 M479.14 308.63 C582.77 186.7, 689.56 64.16, 747.12 0.69 M483.13 309.52 C587.7 189.46, 695.71 66.46, 753.05 -0.17 M483.31 309.32 C577.62 202, 670.75 96.45, 752.38 -0.65 M489.71 307.79 C583.76 198.37, 678.38 88.49, 758.1 -0.21 M489.01 309.13 C556.9 231.54, 624.44 153.62, 757.99 -0.01 M493.96 308.86 C559.32 237.38, 622.58 164.15, 764.43 0.84 M494.54 308.93 C591.14 198.12, 686.71 88.99, 763.54 -0.6 M499.52 309.49 C571.57 225.91, 646.22 141.33, 768.74 1.02 M499.38 309.59 C586.75 210.36, 673.75 110.4, 768.84 0.18 M504.34 309.33 C567.11 237.17, 629.8 164.76, 773.55 -1.3 M505.46 308.66 C573.23 232.05, 641.3 152.98, 774.03 -0.27 M510.64 310.61 C614.76 191.85, 719.34 73.62, 779.48 -0.56 M510.01 309.63 C606.29 199.56, 700.87 89.89, 778.57 0.5 M516.03 309.27 C614.12 197.38, 710.79 84.14, 784.79 -1.37 M515.54 308.83 C596.54 216.56, 677.46 124.36, 784.7 0.03 M520.12 309.51 C612.6 200.68, 705.48 94.01, 788.66 -0.7 M520.58 309.63 C610.29 205.25, 700.97 101.1, 789.84 0.11 M527.32 309.68 C615.38 203.79, 705.43 100.19, 795.16 -0.81 M525.85 309.65 C589.09 236.86, 652.46 164.69, 795.53 0.14 M531.5 310.29 C614.15 215.05, 696.05 117.83, 801.06 -0.22 M531.64 309.43 C637.04 189.46, 742.02 68.86, 799.81 -0.3 M536.32 308.71 C620.36 212.75, 704.24 116.2, 806.44 -0.07 M537.41 309.59 C639.18 191.97, 740.88 73.12, 806.19 -0.44 M542.1 309.31 C599.8 243.68, 657.3 177.91, 811.35 0.53 M542.37 309.58 C613.14 225.6, 685.08 143.83, 810.53 -0.11 M548.62 309.4 C652.01 188.87, 754.88 69.14, 816.84 1.09 M547.35 309.23 C640.91 201.91, 734.67 95.02, 815.92 -0.18 M552.89 309.39 C629.52 220.21, 706.5 133.39, 820.61 0.59 M552.12 309.72 C620.59 230.86, 689.09 152.01, 821.79 -0.44 M558.64 309.72 C638.57 216.89, 720.9 124.19, 826.86 -0.55 M558.27 308.51 C643.6 209.27, 729.88 110.27, 826.7 -0.19 M563.02 309.99 C659 201.71, 753.01 91.33, 833.05 -0.57 M563.28 309.12 C636.37 224.57, 708.41 142.61, 831.71 -0.33 M568.31 308.13 C659.26 205.67, 750.17 102.34, 836.51 0.56 M568.87 309.46 C669.02 194.44, 769.66 78.96, 837.7 -0.23 M573.08 308.3 C663.12 207.03, 751.82 105.81, 843.87 0.3 M574.02 309.42 C670.45 195.84, 767.47 84.42, 842.77 -0.55 M579.39 309.06 C640.36 241.23, 698.59 174.24, 846.82 -0.76 M580 309.08 C676.32 196.1, 773.46 83.75, 847.3 -0.1 M584.02 309.09 C671.27 208.26, 759.19 107.64, 853.59 0.31 M584.44 309.7 C642.72 242.95, 701.01 175.33, 853.54 0.24 M590.1 308.57 C648.28 239.68, 707.17 171.6, 858.09 1.24 M589.72 308.67 C651.67 238.36, 712.43 167.96, 858.54 0.61 M596.08 308.27 C687.44 202.61, 780.79 97.66, 864.75 0.35 M594.84 309.23 C662.8 230.17, 730.95 151.13, 863.66 -0.58 M600.73 308.72 C666.79 232.01, 731.05 156.44, 868.75 0.08 M600.46 308.88 C678.24 219.46, 754.44 131.72, 868.61 -0.28 M605.42 309.35 C705.11 195.04, 806.98 78.61, 874.19 -0.46 M605.21 309.09 C689.58 209.85, 776.11 110.87, 874.36 -0.21 M611.78 310.57 C704.23 201.81, 796.64 95.37, 878.72 0.23 M611.17 309.93 C701.26 205.8, 792.23 100.24, 879.36 -0.38 M616.28 309.15 C698.97 213.43, 779.76 118.88, 885.15 0.8 M616.87 309.45 C721.67 185.96, 827.8 63.92, 885.75 0.21 M621.16 310.08 C680.67 243.23, 738.08 175.22, 890.47 0.57 M621.67 309.13 C724.38 191.1, 825.65 74.47, 890.11 0.16 M626.68 309.93 C683.83 245.59, 741.16 179.06, 895.22 -1.31 M626.43 309.01 C707.82 214.97, 788.23 122.43, 896.24 -0.57 M632.29 310.35 C711.42 221.37, 788.81 130.72, 901.33 -0.13 M632.47 309.25 C703.69 226.03, 777.43 142.11, 900.41 0.25 M638.28 309.44 C709.26 227.73, 781.28 144.57, 906.15 0.34 M637.33 308.86 C740.65 191.92, 842.68 74.25, 906.37 -0.05 M642.5 308.67 C708.19 233.08, 774.06 156.93, 911.2 0.16 M642.53 309.47 C714.66 225.68, 787.24 142.27, 911.69 -0.46 M648.69 308.65 C706.96 240.99, 766.46 172.49, 916.23 0.16 M648.28 308.6 C705.98 242.23, 763.57 175.75, 917.24 -0.2 M652.19 309.41 C738 214.46, 819.68 118.8, 921.42 -1.07 M653.5 309.97 C733.99 213.92, 816.47 118.53, 922.33 0.05 M659.21 308.44 C749.03 202.13, 839.7 97.2, 927.97 0.7 M659.34 309.12 C744.61 210.2, 831.65 111.13, 927.65 -0.34 M663.79 309.71 C756.73 205.73, 845.81 101.02, 933.72 -0.87 M663.7 309.19 C745.08 216.65, 826.61 123.7, 932.57 0.14 M669.27 308.51 C741.1 226.12, 811.1 144.48, 937.51 1.35 M669.14 308.75 C734.18 234.05, 799 159.86, 937.39 0.84 M674.04 309.34 C763.42 204.99, 853.4 102.74, 942.46 -0.81 M674.14 309.88 C742.47 231.08, 810.68 152.74, 943.99 -0.56 M679.8 308.48 C772.27 206.31, 862.56 99.92, 949.39 0.77 M679.85 309.3 C748.48 229.66, 818.29 150.41, 948.17 0.69 M686.1 309.68 C778.37 202.45, 873.28 91.7, 953.39 0.77 M684.69 309.74 C778.98 200.13, 872.72 91.67, 954.56 -0.57 M689.84 308.98 C767.18 220.36, 844.92 133.47, 958.26 0.39 M691.11 308.88 C765.95 221.83, 842.39 134.05, 959.12 -0.22 M695.21 310.35 C796.6 193.37, 897.13 76.75, 964.91 -1.15 M695.75 309.66 C762.68 230.72, 829.86 153.55, 964.67 -0.45 M702.15 308.34 C792 206.11, 880.08 103.78, 970.3 0.21 M701.71 309.12 C798.23 198.39, 894.58 86.87, 970 0.62 M705.26 310.32 C769.42 235.88, 834.25 163.55, 975.76 0.41 M706.54 308.81 C763.15 245.78, 818.9 181.34, 975.5 -0.02 M710.98 308.12 C792.86 220.14, 870.95 130.12, 979.32 0.72 M712.3 309.07 C810.47 194.68, 909.28 81.58, 979.97 0.1 M716.63 309.05 C799.85 212.58, 882.22 117.26, 986.18 -0.85 M716.82 309.55 C812.77 200.69, 908.2 90.86, 986.25 -0.02 M723.12 309.79 C795.48 225.7, 869.06 139.97, 990.01 -0.45 M722.68 309.04 C806.4 211.81, 892.1 114.32, 991.45 -0.02 M727.31 309.76 C782.6 245.8, 839.06 179.98, 996.73 0.79 M727.38 309.21 C781.45 244.85, 835.69 182.63, 996.93 -0.47 M731.81 309.98 C832.69 194.35, 932.86 80.59, 1001.34 -0.77 M732.76 309.75 C799.77 232.86, 866.82 155.88, 1001.86 -0.27 M738.4 309.51 C818.92 219.01, 897.44 128.06, 1007.27 -0.04 M738.45 309.41 C831.52 199.84, 925.47 91.82, 1007.74 -0.08 M742.53 309.59 C847.19 191.03, 948.99 71.42, 1012.08 -0.57 M743.58 309.81 C834.32 204.91, 927.08 99.19, 1011.9 0.35 M748.62 309.16 C848.69 196.41, 946.86 85.12, 1017.99 -1.1 M749.08 308.93 C849.61 193.22, 950.4 76.26, 1017.51 -0.17 M754.76 310.58 C829.09 220.92, 905.37 134.64, 1021.94 0.28 M753.86 309.76 C807.26 246.6, 862.78 183.29, 1022.74 0.57 M759.8 310 C857.17 197.89, 953.32 87.03, 1028.36 -0.24 M759.95 308.67 C853.39 201.18, 946.74 93.84, 1028.56 -0.75 M763.49 309.68 C862.42 199.49, 959.51 86.65, 1032.62 -0.93 M764.32 309.54 C867.79 192.34, 969.03 75.41, 1033.34 -0.44 M769.18 308.32 C843.06 225.86, 915.83 141.89, 1038.2 -0.88 M770.59 308.86 C850.32 214.52, 932.86 119.9, 1039.61 -0.01 M775.09 309.02 C849.08 226.15, 922.75 140.62, 1044.54 0.19 M775.37 309.83 C839.43 236.23, 903.73 162.25, 1044.25 -0.28 M781.5 309.63 C840.07 243, 897.17 176.95, 1048.14 0.81 M781.04 308.55 C883.55 191.93, 985.15 74.27, 1048.97 0.4 M786.36 308.46 C889.79 191.83, 993.08 72.19, 1055.73 0.76 M785.44 309.27 C864.59 218.65, 944.28 127.11, 1054.89 -0.52 M790.31 310.05 C890.08 194.91, 988.21 80.74, 1058.94 0.83 M791.3 309.45 C868.03 222.21, 943.97 134.72, 1059.87 0.59 M796.69 308.87 C861.76 233.22, 927.15 157.69, 1065.12 0.56 M795.95 309.47 C873.16 220.7, 949.48 134.41, 1065.16 0.47 M801.1 308.33 C866.29 234.11, 929.25 161.63, 1070.85 -0.46 M801.87 308.76 C858.98 245.24, 914.78 180.42, 1070.52 -0.19 M806.9 308.83 C888.02 215.21, 969.05 123.93, 1075.86 0.97 M807.45 308.89 C880.71 224.69, 954.7 138.83, 1076.05 0.41 M812.55 309.2 C912.45 190.53, 1014.74 75.26, 1080.74 -0.22 M813.2 308.55 C904.01 206.83, 994.61 103.44, 1080.58 0.61 M818.22 310.14 C920.88 188.75, 1025.92 67.99, 1087.62 -0.61 M817.98 308.92 C920.25 190.96, 1022.93 72.53, 1086.83 0.19 M824.24 309.05 C902.36 220.99, 978.25 133.42, 1091.33 -0.13 M822.97 308.6 C908.49 211.91, 994.25 113.24, 1092.12 0.19 M828.88 310.1 C892.67 235.81, 957.58 160.71, 1097.66 -0.77 M827.99 308.96 C892.92 234.5, 957.74 160.05, 1096.75 0.07 M833.37 308.03 C912.08 217.25, 992.02 125.63, 1101.32 -0.82 M834.3 309.12 C887.57 245.13, 942.76 181.64, 1102.5 -0.21 M839.71 309.24 C938.2 195.65, 1036.64 81.21, 1108.58 -0.09 M838.73 309.09 C925.7 210.79, 1011.68 111.72, 1107.76 0.23 M844.02 309.72 C923.91 220.67, 1000.32 130.48, 1113.06 -0.82 M843.57 309.9 C930.69 210.85, 1016.55 112.4, 1112.62 -0.25 M848.6 310.2 C954.85 187.82, 1059.91 66.26, 1117.7 1.03 M849.49 309.63 C911.69 239.12, 972.52 167.69, 1117.8 0.93 M855.42 310.41 C957.43 190.4, 1059.85 75.25, 1117.38 6.18 M854.56 310.03 C951.02 198.39, 1047.95 87.35, 1117.79 6.06 M860.4 310.06 C941.17 215.13, 1023.37 120.16, 1116.9 12.4 M860.32 309.4 C910.89 248.93, 963.82 188.5, 1117.88 12.16 M865.75 309.01 C929 234.89, 991.72 162.24, 1118.54 18.19 M865.23 309.64 C951.1 209.4, 1037.58 109.79, 1118.89 17.71 M870.34 310.18 C929.3 238.65, 988.18 171.43, 1116.98 23.47 M870.36 309.6 C921.43 250.24, 972.4 190.25, 1118.04 24.73 M875.79 309.93 C971.54 201.25, 1068.58 91.49, 1119.1 31.15 M876.39 309.69 C930.16 248.09, 982.44 187.13, 1117.53 31.56 M880.74 308.25 C941.4 240.59, 999.96 171.74, 1117.65 35.72 M882 308.73 C941.09 238.76, 1000.07 169.98, 1117.78 36.08 M887.56 308.68 C944.23 239.28, 1004.55 169.77, 1117.08 42.31 M886.98 309.98 C943.84 242.86, 1001.87 176.61, 1118.2 43.63 M890.88 309.4 C967.89 223.04, 1041.57 135.2, 1118.31 47.47 M891.74 309.19 C951.81 237.92, 1012.08 167.27, 1117.81 48.95 M897.84 309.9 C974.05 223.11, 1048.59 137.72, 1119.17 54.92 M897.07 309.43 C958.01 239.72, 1019.49 169.59, 1118.22 55.38 M903.08 309.93 C959.13 245.64, 1013.42 180.32, 1118.72 60.82 M903.32 309.19 C950.5 254.03, 999.81 198.29, 1117.56 61.76 M906.78 308.44 C964.92 242.84, 1020.13 178.5, 1119.04 66.18 M907.4 309.48 C956.29 253.12, 1003.98 198.52, 1118.32 66.45 M913.36 308.21 C974.67 239.18, 1032.78 169.77, 1117.6 72.17 M912.83 308.32 C959.14 255.27, 1004.88 202.09, 1118.39 73.66 M917.26 309.07 C982.18 238.6, 1046.01 165.72, 1118.5 79.97 M918.77 309.51 C997.37 219.71, 1076.6 127.22, 1118.93 78.88 M923.52 309.7 C982.37 243.57, 1041.96 175.04, 1118.43 86.37 M924.21 308.57 C964.16 265.5, 1003.41 219.84, 1118.88 86.07 M927.83 308.95 C987.63 242.3, 1044.45 176.23, 1118 92.38 M928.26 308.66 C999.32 227.76, 1070.68 145.29, 1117.19 91.46 M934.63 308.28 C976.58 261.93, 1017.55 213.58, 1119.61 98.06 M934.66 309.43 C973.56 262.59, 1013.75 216.6, 1118.09 97.34 M939.64 310.1 C990.38 248.11, 1043.64 190.56, 1117.51 104.21 M940.26 309.72 C1002.31 237.55, 1063.07 167.25, 1117.69 104.61 M945.25 307.9 C983.31 266.72, 1019.98 223.57, 1117.39 108.11 M945.24 308.16 C1013.07 233.69, 1078.01 156.98, 1118.87 110.17 M948.9 309.07 C997.66 254.9, 1044.17 203.24, 1116.99 115.52 M950.87 309.27 C1007.94 242.98, 1066.23 175.53, 1117.38 116.71 M955.25 310.44 C1002.55 254.31, 1050.51 197.82, 1116.45 123.9 M955.24 309.23 C1005.84 248.84, 1057.69 189.51, 1117.19 122.56 M961 307.65 C1009.33 252.24, 1057.61 198.59, 1117.67 127.04 M960.55 309.11 C995.54 269.75, 1031.5 228.79, 1118.07 127.79 M967.1 310.45 C1010.78 255.11, 1059.36 202.23, 1118.77 135.2 M965.4 309.73 C1011.06 256.55, 1056.04 206.11, 1118.07 134.75 M973.17 308.6 C1025.65 245.79, 1078.56 186.73, 1119.82 139.49 M970.66 309.42 C1012.09 259.73, 1054.22 212.21, 1118.74 139.95 M976.79 311.04 C1026.86 250.52, 1076.82 191.85, 1117.17 145.86 M976.57 309.08 C1020.53 257.5, 1063.43 206.49, 1118 146.74 M981.95 310.46 C1020.96 264.06, 1060.43 222.32, 1116.51 152.5 M982.63 309.38 C1014 271.46, 1046.84 232.78, 1117.04 152.13 M988.33 309.37 C1036.16 255.74, 1083.54 196.59, 1116.58 160.17 M986.27 308.78 C1040.28 250.95, 1091.1 190.32, 1118.2 159.32 M992.25 308.62 C1020.31 276.43, 1046.7 242.88, 1119.2 163 M993.51 309.74 C1029.9 269.16, 1064.96 228.12, 1118.3 164.74 M997.55 309.49 C1036.56 260.45, 1080.36 212.08, 1118.51 170.73 M997.72 308.96 C1036.21 266.9, 1073.66 222.88, 1118.09 170.43 M1001.81 308.29 C1027.86 282.34, 1051.5 254.57, 1120.09 176.12 M1003.41 308.14 C1044.85 262.5, 1085.94 214.13, 1118.18 176.31 M1008.07 310.13 C1037.48 275.95, 1069.4 239.93, 1117.94 182.17 M1008.21 309.22 C1034.99 276.55, 1064.45 244.22, 1117.29 184.14 M1013.69 308.25 C1054.72 263.48, 1094.17 214.8, 1117.8 187.98 M1013.74 308.08 C1048.37 266.56, 1085.2 225.57, 1118.95 188.6 M1018.69 309.56 C1043.06 282.12, 1067.91 254.56, 1118.84 196.49 M1019.09 309.28 C1055.28 266.89, 1090.53 226.03, 1117.32 195.4 M1026.6 309.97 C1060.8 268.57, 1094.91 228.38, 1119.74 200.59 M1023.78 309.88 C1048.28 282.77, 1072.46 256.15, 1118.42 200.76 M1028.71 307.93 C1060.46 272.11, 1090.28 238.83, 1117.06 206.64 M1029.22 310.22 C1064.39 268.2, 1099.69 229.17, 1118.66 207.19 M1036.94 307.77 C1059.53 282.63, 1080.32 258.17, 1119.36 212.57 M1035.71 309.69 C1052.57 289.12, 1069.47 269.45, 1118.13 213.04 M1040.1 309.22 C1067.1 281.05, 1092.99 249.81, 1116.78 219.64 M1039.88 309.5 C1057.96 288.03, 1075.09 265.62, 1118.36 218.53 M1044.74 310.79 C1065.31 284.66, 1086.76 260.64, 1116.69 226.11 M1045.66 308.48 C1067.54 284.63, 1089.02 258.24, 1117.06 226.77 M1051.46 311.25 C1077.5 278.03, 1104.65 246.09, 1119.81 231.38 M1051.77 309.86 C1065.87 291.7, 1080.35 275.93, 1118.41 232.29 M1055.7 309.04 C1077.15 283.74, 1097.98 259.14, 1116.5 237.51 M1056.67 309.05 C1075.42 284.87, 1096.14 261.13, 1118.59 237.84 M1060.08 307.71 C1082.77 286.6, 1104.74 262.18, 1118.96 245.33 M1062.02 308.41 C1073.48 295.39, 1084.44 281.68, 1118.03 244.91 M1067.18 307.36 C1088.37 283.99, 1108.65 262.63, 1116.82 248.17 M1067.69 309.03 C1080.33 294.88, 1092.99 280.18, 1118.21 250.75 M1071.88 310.1 C1086.82 291.7, 1100.23 276.88, 1118.7 255.54 M1071.18 309.55 C1084.98 293.6, 1098.76 278.6, 1117.37 256.41 M1077.51 308.19 C1092.42 294.12, 1107.88 274.42, 1118.38 263.31 M1077.95 308.64 C1088.62 296.2, 1101.62 282.28, 1117.84 262.29 M1083.45 309.78 C1095.93 296.12, 1107.9 279.38, 1117.14 269.17 M1082.2 310.04 C1093.58 296.89, 1104.4 283.93, 1118.51 267.89 M1086.69 310.56 C1098.43 297.41, 1109.74 281.63, 1117.88 274.77 M1088.58 308.64 C1096.84 297.62, 1107.04 286.43, 1118.14 275.36 M1092.04 307.96 C1100.78 302.03, 1108.03 293.5, 1118.74 281.46 M1093.5 309.94 C1099.88 300.54, 1107.58 291.86, 1119.12 279.53 M1098.38 308.59 C1103.26 300.75, 1113.04 295.41, 1116.67 287.96 M1097.63 309.91 C1101.79 305.42, 1106.92 299.14, 1118.18 286.92 M1105.53 309.68 C1107.3 305.38, 1109.49 300.8, 1119.6 290.52 M1103.86 309.67 C1107.6 303.49, 1112.7 299.7, 1118.77 292.32 M1108.68 310.2 C1111.02 305.99, 1111.45 305.59, 1118.58 299.95 M1109.53 309.41 C1112.32 306.17, 1114.27 303.27, 1118.38 299.33 M1115.1 309.27 C1115.54 308.12, 1116.31 306.73, 1117.64 304.99 M1114.86 309.05 C1115.44 308.15, 1116.17 307.27, 1117.77 305.44" stroke="#ced4da" stroke-width="0.5" fill="none"></path><path d="M0.18 0.55 C404.56 0.39, 808.86 0.47, 1118.6 0.11 M-0.09 0.17 C351.48 1.5, 702.36 1.75, 1117.54 -0.15 M1117.37 -0.18 C1119.67 110.44, 1118.26 218.93, 1116.51 309.27 M1118.2 -0.02 C1119.13 65.55, 1119.42 131.07, 1117.67 307.46 M1118.6 308.11 C820.76 303.95, 524.44 303.25, -0.09 307.18 M1118.14 308.31 C788.73 307.8, 459.74 307.05, 0.17 307.78 M0.05 307.2 C0.78 221.06, 2.83 134.83, -0.75 -0.15 M-0.68 308.39 C1.7 216.07, 1.31 122.53, 0.58 -0.49" stroke="#000000" stroke-width="1" fill="none"></path></g><g stroke-linecap="round" transform="translate(672.0831197102862 66.95832570393873) rotate(0 79.5 26.5)"><path d="M0.92 1.08 C60.78 -0.61, 121.26 1.16, 157.52 2 M0.18 -0.72 C55.99 0.61, 110.98 0.23, 158.13 0.19 M159.88 1.96 C157.36 11.53, 160.05 28.41, 157.67 54.59 M159.24 -0.42 C158.16 10.86, 158.1 22.32, 159.86 52.91 M157.33 53.43 C115.49 52.95, 71.6 54.06, -1.22 51.62 M158.64 52.67 C120.78 51.76, 80.86 51.66, -0.09 52.79 M1.22 51.35 C-2.31 38.77, 1.44 22.53, -1.05 0.79 M0.88 52.66 C0.19 35.12, 0.99 16.82, -0.3 0" stroke="#087f5b" stroke-width="1" fill="none"></path></g><g transform="translate(677.0831197102862 79.95832570393873) rotate(0 74.5 13.5)"><text x="74.5" y="19" font-family="Virgil, Segoe UI Emoji" font-size="20px" fill="#087f5b" text-anchor="middle" style="white-space: pre;" direction="ltr">Store(s)</text></g><g stroke-linecap="round" transform="translate(1080.5834096272783 68.79160817464185) rotate(0 79.5 26.5)"><path d="M-1.75 -0.8 C37.53 0, 73.38 0, 157.31 -0.32 M0.62 0.38 C41.7 -0.36, 81.63 0.52, 158.34 -0.36 M159.55 -0.21 C157.2 13.33, 156.87 26.78, 157.39 51.34 M159.73 -0.87 C158.88 12.19, 159.22 24.98, 159.97 52.98 M160.33 53.41 C100.09 53.75, 42.51 55.87, -0.19 51.49 M159.08 53.54 C114.24 52.85, 68.64 52.19, 0.65 52.54 M1.92 52.56 C-0.74 43.2, 0.09 30.03, 0.02 0.49 M-0.51 52.4 C0.15 35.36, 0.73 17.48, 0.09 -0.83" stroke="#a61e4d" stroke-width="1" fill="none"></path></g><g transform="translate(1085.5834096272783 81.79160817464185) rotate(0 74.5 13.5)"><text x="74.5" y="19" font-family="Virgil, Segoe UI Emoji" font-size="20px" fill="#a61e4d" text-anchor="middle" style="white-space: pre;" direction="ltr">Consumer(s)</text></g><g stroke-linecap="round" transform="translate(457.083203633626 68.45832570393873) rotate(0 84.08333969116211 22.875)"><path d="M-0.94 -1.77 C43.27 -1.1, 88.49 -2.62, 168.19 -1.97 M0.73 0.76 C36.16 0.6, 73.14 0.23, 167.48 -0.69 M168.06 1.65 C169.59 15.22, 168.54 29.33, 169.85 46.65 M167.46 -0.99 C169.26 12.69, 168.37 24.39, 167.96 44.8 M167.07 46.08 C115.8 45.85, 66.38 46.91, -0.24 44.86 M169.07 44.91 C103.16 46.34, 37.81 46.25, -0.59 46.69 M1.82 44.13 C0.73 37.56, -1.75 25.05, 0.11 -1.36 M-0.82 45.93 C0.23 29.33, -0.19 13.55, 0.73 0.01" stroke="#364fc7" stroke-width="1" fill="none"></path></g><g transform="translate(462.083203633626 77.83332570393873) rotate(0 79.08333969116211 13.5)"><text x="79.08333969116211" y="19" font-family="Virgil, Segoe UI Emoji" font-size="20px" fill="#364fc7" text-anchor="middle" style="white-space: pre;" direction="ltr">Global Admin(s)</text></g><g stroke-linecap="round" transform="translate(670.9166005452471 136.12498219807935) rotate(0 79.5 26.5)"><path d="M1.1 0.34 C58.87 -0.33, 119.08 0.54, 157.23 -1.09 M-0.42 -0.26 C61.44 -0.44, 123.84 0.03, 159.27 0.01 M159.44 -0.89 C157.53 18.1, 160.17 37.4, 158.69 52.14 M159.52 0.11 C158.42 14.11, 158.31 29.03, 158.18 52.65 M159.23 54.68 C120.49 55.76, 77.28 53.83, 1.99 52.13 M158.33 52.64 C96.27 52.97, 31.63 52.6, 0.01 52.76 M-0.67 54.04 C1.09 39.6, 1.3 22.73, 0.06 1.73 M0.08 52.86 C0.07 41.41, -0.24 29.81, -0.25 -0.07" stroke="#495057" stroke-width="1" fill="none"></path></g><g transform="translate(675.9166005452471 152.62498219807935) rotate(0 74.5 10)"><text x="74.5" y="14" font-family="Virgil, Segoe UI Emoji" font-size="16px" fill="#495057" text-anchor="middle" style="white-space: pre;" direction="ltr">Store Admin(s*)</text></g><g stroke-linecap="round" transform="translate(670.9165242513018 205.45838673909498) rotate(0 79.5 32)"><path d="M-0.87 1.04 C39.77 -1.15, 75.8 -0.27, 159.64 -1.35 M-0.71 0.49 C35.22 1.98, 68.45 0.42, 158.98 -0.83 M157.48 -1.66 C157.21 14.44, 157.64 26.37, 159.09 62.95 M159.6 0.34 C159.95 21.14, 158.1 41.84, 158.54 64.27 M160.51 63.73 C123.81 64.91, 89.61 61.69, -1.42 64.28 M158.44 63.95 C119.89 64.38, 80.55 63.13, -0.84 63.95 M-1.95 63.19 C0.04 44.55, -1.65 25.02, -1.93 -1.49 M0.35 64.37 C-0.22 40.34, -0.93 18.14, 0.32 -0.7" stroke="#495057" stroke-width="1" fill="none"></path></g><g transform="translate(675.9165242513018 227.45838673909498) rotate(0 74.5 10)"><text x="74.5" y="14" font-family="Virgil, Segoe UI Emoji" font-size="16px" fill="#495057" text-anchor="middle" style="white-space: pre;" direction="ltr">Store Manager(s)</text></g><g transform="translate(243.41661580403616 66.87498410542798) rotate(0 83.5 12.5)"><text x="0" y="18" font-family="Virgil, Segoe UI Emoji" font-size="20px" fill="#000000" text-anchor="start" style="white-space: pre;" direction="ltr">USERS &amp; ROLES</text></g><g stroke-linecap="round" transform="translate(400.16671498616506 571.4583638509114) rotate(0 62.83332824707031 29.166702270507812)"><path d="M0.47 0.81 C34.06 -2.43, 70.84 0.57, 124.17 0.95 M0.63 0.74 C43.8 -0.15, 85.41 -0.33, 124.76 -0.74 M127.26 -0.72 C123.92 21.83, 125.43 41.36, 125.65 59.38 M125.11 -0.11 C125.14 22.46, 125.59 45.41, 126.52 58.69 M127.64 57.5 C87.71 60.38, 48.39 59.08, -1.13 59.25 M125.3 59.01 C84.47 60.11, 43.6 60.19, 0.48 59.01 M-0.26 58.68 C0.43 40.88, -0.52 22.05, -1.64 0.47 M-0.25 57.84 C-0.38 44.84, 0.07 31.52, 0.4 -0.23" stroke="#087f5b" stroke-width="1" fill="none"></path></g><g transform="translate(405.16671498616506 587.1250661214192) rotate(0 57.5 13.5)"><text x="57.5" y="19" font-family="Virgil, Segoe UI Emoji" font-size="20px" fill="#087f5b" text-anchor="middle" style="white-space: pre;" direction="ltr">store</text></g><g stroke-linecap="round" transform="translate(873.8331425984697 65.95834096272779) rotate(0 79.5 26.5)"><path d="M-1.62 0.1 C47.5 -2.84, 93.09 -0.61, 157.78 0.71 M-0.48 -0.06 C37.06 0.53, 76.71 -0.83, 159.67 0.71 M159.57 -0.17 C159.07 13.94, 159.34 29.64, 160.15 54.01 M159.05 0.76 C159.24 14.76, 160.17 28.69, 158.24 53.94 M158.08 52.03 C123.91 52.27, 86.03 51.34, -0.61 54.44 M159.87 53.57 C118.77 52.24, 76.65 53.44, -0.29 52.3 M0.96 53.83 C-0.25 33.34, 0.38 15.66, 1.46 -0.7 M0.62 53.12 C-0.21 39.16, 0.09 27.29, -0.41 -0.36" stroke="#862e9c" stroke-width="1" fill="none"></path></g><g transform="translate(878.8331425984697 78.95834096272779) rotate(0 74.5 13.5)"><text x="74.5" y="19" font-family="Virgil, Segoe UI Emoji" font-size="20px" fill="#862e9c" text-anchor="middle" style="white-space: pre;" direction="ltr">Supplier(s)</text></g><g stroke-linecap="round" transform="translate(1048.3333104451494 554.6249898274739) rotate(0 32.5 55.66668701171875)"><path d="M0 0 C0 0, 0 0, 0 0 M0 0 C0 0, 0 0, 0 0 M0.37 6.87 C0.06 4.92, 1.45 3.42, 5.39 0.72 M-0.4 6.28 C1.39 4.88, 2.94 3.46, 5.25 0.16 M-1.45 13.48 C2.01 7.72, 4.31 7.67, 10.81 1.07 M-0.5 11.47 C3.08 8.04, 7.72 4.42, 11.2 -0.25 M-1.77 18.36 C6.24 13.13, 10.96 8.15, 16.45 -1.55 M-0.69 19.37 C6.18 12.34, 11.64 5.46, 16.51 1.1 M1.96 24.27 C4.71 16.75, 10.36 11.74, 21.76 -1.77 M0.29 23.12 C8.25 15.72, 14.43 7.38, 21.21 0.87 M1.3 30.15 C8.67 22.56, 16.64 11.37, 24.89 0.15 M0.18 31.19 C6.81 22.73, 13.13 14.67, 25.64 -0.68 M-1.11 36.12 C7.71 28.07, 13.6 20.75, 30.93 -1.12 M0.1 35.93 C9.93 24.67, 21.28 11.57, 30.99 -0.45 M0.77 41.49 C13.34 28.26, 26.06 11.75, 37.37 1.64 M0.05 42.98 C10.21 30.19, 21.66 18.72, 35.94 0.83 M1.03 50.41 C15.87 29.97, 29.03 13.71, 41.93 1.56 M0.64 48.91 C10.08 38.83, 18.19 27.2, 41.57 -0.18 M0.99 53.9 C17.52 35.68, 35.51 13.46, 47.99 -0.87 M-0.58 55.18 C13.74 37.61, 27.28 21.58, 47.8 -0.02 M-1.4 59.36 C18.31 38.52, 41.16 14.03, 52.41 -0.54 M-0.76 61.54 C20.15 37.97, 39.69 13.71, 52.32 0.78 M-0.32 68.57 C13.51 49.32, 28.64 32.26, 58.93 1.78 M0.62 68.02 C12.4 52.71, 25.82 38, 59.04 1.12 M-1.48 71.39 C19.08 47.89, 43.76 24.26, 62.06 0.71 M-0.61 72.55 C23.24 45.93, 47.19 18.75, 63.05 0.55 M-1.41 79.37 C14.08 62.83, 29.47 46.42, 67.11 1.21 M0.43 78.49 C20.69 55.09, 40.92 31.71, 67.69 2.16 M-0.25 83.85 C26.18 53.58, 51.13 25.47, 65.43 8.67 M0 84.71 C25.82 55.09, 50.21 26.22, 66.86 8.6 M-0.4 93.36 C18.61 69.66, 34.81 49.64, 66.29 14.25 M0.12 90.9 C19.98 68.76, 41.26 45.3, 65.98 15.34 M0.7 99.76 C17.63 77.84, 35.33 58.3, 66.28 20.82 M-1.15 97.6 C23.3 70.56, 45.45 43.2, 66.45 20.59 M-0.73 103.81 C18.14 83.25, 37.6 59.39, 65.31 24.81 M0.06 103.8 C14.65 85.72, 30.88 67.52, 66.67 27.05 M1.78 108.85 C17.11 93.35, 29.84 75.82, 65.78 30.33 M-0.89 110.52 C18.02 89.78, 36.7 67.1, 68.33 31.99 M2.2 112.63 C25.87 86.68, 49.35 57.35, 65.96 38.55 M3.1 112.54 C20.25 92.15, 37.62 72.1, 66.83 38.54 M8.72 111.72 C25.27 92.38, 44.58 75.15, 67.22 45.82 M6.7 112.8 C26.86 92.77, 45.98 70.57, 67.56 45.79 M11.67 111.41 C30.16 93.9, 48.76 70.8, 66.7 49.31 M13.12 114.19 C28.3 96.84, 41.47 80.33, 67.64 50.31 M16.81 114.01 C29.13 99.31, 43.86 82.45, 65.93 56.61 M18.48 113.86 C31.62 97.03, 45.17 82.17, 67.61 57.77 M21.9 112.02 C37.91 95.06, 50.86 81.21, 66.08 63.87 M23.4 112.24 C39.57 94.01, 56.51 74.81, 67.76 62.93 M30.08 113.51 C44.49 95.01, 58.96 78.53, 65.33 69.2 M29.47 114.41 C40.98 98.33, 53.15 85.07, 66.48 69.02 M33.72 111.47 C40.91 104.39, 51.66 92.73, 66.06 74.73 M34.19 113.37 C41.89 104.35, 49.52 94.8, 66.65 75.74 M39.86 113.2 C50.64 99.59, 59.47 88.68, 67.55 80.28 M39.41 113.4 C45.79 105.15, 52.35 96.79, 67.28 80.88 M46.02 113.7 C48.3 106.25, 54.3 100.73, 66.6 89.01 M44.24 113.32 C50.24 106.56, 56.28 101.05, 67.24 87.84 M49.59 113 C55.92 105.59, 62.2 97.44, 68.79 93.48 M49.52 113.83 C54.15 108.84, 57.56 104.1, 67.57 93.72 M55.71 113.53 C58.24 107.2, 63.52 102.27, 65.94 100.93 M54.81 112.85 C59.3 108.65, 61.5 105.75, 67.85 98.72 M59.57 113.59 C62.35 111.61, 63.17 108.9, 66.81 105.01 M60.44 113.08 C61.9 111.56, 64.28 109.03, 66.86 105.81" stroke="#ced4da" stroke-width="0.5" fill="none"></path><path d="M-1.36 -0.7 C24.02 1.81, 45.91 -1.23, 65.13 -1.17 M0.7 -0.74 C15.67 -0.07, 31.66 -0.87, 65.58 -0.02 M64.72 -0.92 C64.45 33.3, 63.79 69.84, 64.51 110.82 M64.03 0.42 C65.87 37.71, 65.17 74.85, 65.7 112.24 M66.13 112.88 C42.44 112.54, 20.92 112.57, -1.55 111.89 M64.41 111.33 C44.22 111.1, 23.22 111.38, 0.75 112.08 M-1.26 111.12 C-0.48 78.39, -1.53 45.85, 1.21 1.82 M-0.79 111.99 C0.18 69.47, 1.21 26.36, -0.75 0.97" stroke="#000000" stroke-width="1" fill="none"></path></g><g transform="translate(1053.3333104451494 596.7916768391926) rotate(0 27.5 13.5)"><text x="27.5" y="19" font-family="Virgil, Segoe UI Emoji" font-size="20px" fill="#000000" text-anchor="middle" style="white-space: pre;" direction="ltr">DB</text></g><g stroke-linecap="round"><g transform="translate(533.0000584920244 602.8563371336181) rotate(0 254.48296765546783 1.5328997968207432)"><path d="M0.33 -0.38 C85.13 0.07, 424.81 2.61, 509.92 3.44 M-0.95 -1.63 C83.55 -1.09, 423.5 3.99, 508.75 4.7" stroke="#087f5b" stroke-width="1" fill="none"></path></g><g transform="translate(533.0000584920244 602.8563371336181) rotate(0 254.48296765546783 1.5328997968207432)"><path d="M-1.09 0.17 L13.75 -7.37 L12.96 4.35 L-1.14 -0.5" stroke="none" stroke-width="0" fill="#087f5b" fill-rule="evenodd"></path><path d="M-0.15 -0.91 C5.02 -2.11, 11.91 -4.17, 14.4 -6.93 M0.29 -1 C3.55 -1.62, 7.4 -3.28, 14.49 -6.46 M13.94 -6.87 C14.84 -2.79, 14.26 3.38, 14.96 5.69 M14.28 -6.98 C14.2 -2.16, 13.41 2.65, 14.04 5.96 M13.63 5.25 C8.16 4.94, 3.19 1.63, -0.09 0.94 M13.21 6.58 C10.21 4.17, 6.16 2.16, -0.1 -0.83 M0.33 -0.38 C0.33 -0.38, 0.33 -0.38, 0.33 -0.38 M0.33 -0.38 C0.33 -0.38, 0.33 -0.38, 0.33 -0.38" stroke="#087f5b" stroke-width="1" fill="none"></path></g><g transform="translate(533.0000584920244 602.8563371336181) rotate(0 254.48296765546783 1.5328997968207432)"><path d="M507.33 5.25 L494.86 10.13 L494.3 -3.51 L507.27 4.58" stroke="none" stroke-width="0" fill="#087f5b" fill-rule="evenodd"></path><path d="M508.27 4.17 C502.7 7.96, 498.78 10.81, 495.5 10.57 M508.7 4.08 C504.33 6.73, 500.63 8.5, 495.59 11.04 M495.05 10.63 C496.06 5.1, 495.58 1.66, 496.31 -2.17 M495.38 10.51 C495.19 6.12, 494.49 1.72, 495.39 -1.9 M494.98 -2.61 C499.17 1.41, 503.74 2.66, 508.32 6.02 M494.56 -1.28 C498.93 0.07, 502.27 1.6, 508.31 4.25 M508.75 4.7 C508.75 4.7, 508.75 4.7, 508.75 4.7 M508.75 4.7 C508.75 4.7, 508.75 4.7, 508.75 4.7" stroke="#087f5b" stroke-width="1" fill="none"></path></g></g><g transform="translate(230.33331807454397 576.8753751118977) rotate(0 129.5 160)"><text x="0" y="11.333333333333334" font-family="Cascadia, Segoe UI Emoji" font-size="11.333331930226295px" fill="#087f5b" text-anchor="start" style="white-space: pre;" direction="ltr">----------</text><text x="0" y="24.666666666666668" font-family="Cascadia, Segoe UI Emoji" font-size="11.333331930226295px" fill="#087f5b" text-anchor="start" style="white-space: pre;" direction="ltr">ITEM</text><text x="0" y="38" font-family="Cascadia, Segoe UI Emoji" font-size="11.333331930226295px" fill="#087f5b" text-anchor="start" style="white-space: pre;" direction="ltr">----------</text><text x="0" y="51.333333333333336" font-family="Cascadia, Segoe UI Emoji" font-size="11.333331930226295px" fill="#087f5b" text-anchor="start" style="white-space: pre;" direction="ltr"></text><text x="0" y="64.66666666666667" font-family="Cascadia, Segoe UI Emoji" font-size="11.333331930226295px" fill="#087f5b" text-anchor="start" style="white-space: pre;" direction="ltr">+ [CREATE] item(</text><text x="0" y="78" font-family="Cascadia, Segoe UI Emoji" font-size="11.333331930226295px" fill="#087f5b" text-anchor="start" style="white-space: pre;" direction="ltr">    user,</text><text x="0" y="91.33333333333334" font-family="Cascadia, Segoe UI Emoji" font-size="11.333331930226295px" fill="#087f5b" text-anchor="start" style="white-space: pre;" direction="ltr">    item,</text><text x="0" y="104.66666666666667" font-family="Cascadia, Segoe UI Emoji" font-size="11.333331930226295px" fill="#087f5b" text-anchor="start" style="white-space: pre;" direction="ltr">    main_category, sub_category, tags,)</text><text x="0" y="118" font-family="Cascadia, Segoe UI Emoji" font-size="11.333331930226295px" fill="#087f5b" text-anchor="start" style="white-space: pre;" direction="ltr"></text><text x="0" y="131.33333333333334" font-family="Cascadia, Segoe UI Emoji" font-size="11.333331930226295px" fill="#087f5b" text-anchor="start" style="white-space: pre;" direction="ltr">+ [UPDATE] item(</text><text x="0" y="144.66666666666669" font-family="Cascadia, Segoe UI Emoji" font-size="11.333331930226295px" fill="#087f5b" text-anchor="start" style="white-space: pre;" direction="ltr">    user,</text><text x="0" y="158" font-family="Cascadia, Segoe UI Emoji" font-size="11.333331930226295px" fill="#087f5b" text-anchor="start" style="white-space: pre;" direction="ltr">    item_id, </text><text x="0" y="171.33333333333334" font-family="Cascadia, Segoe UI Emoji" font-size="11.333331930226295px" fill="#087f5b" text-anchor="start" style="white-space: pre;" direction="ltr">    ...)</text><text x="0" y="184.66666666666669" font-family="Cascadia, Segoe UI Emoji" font-size="11.333331930226295px" fill="#087f5b" text-anchor="start" style="white-space: pre;" direction="ltr"></text><text x="0" y="198" font-family="Cascadia, Segoe UI Emoji" font-size="11.333331930226295px" fill="#087f5b" text-anchor="start" style="white-space: pre;" direction="ltr">+ [DELETE] item(</text><text x="0" y="211.33333333333334" font-family="Cascadia, Segoe UI Emoji" font-size="11.333331930226295px" fill="#087f5b" text-anchor="start" style="white-space: pre;" direction="ltr">    user, </text><text x="0" y="224.66666666666669" font-family="Cascadia, Segoe UI Emoji" font-size="11.333331930226295px" fill="#087f5b" text-anchor="start" style="white-space: pre;" direction="ltr">    item_id,</text><text x="0" y="238" font-family="Cascadia, Segoe UI Emoji" font-size="11.333331930226295px" fill="#087f5b" text-anchor="start" style="white-space: pre;" direction="ltr">    reason,)</text><text x="0" y="251.33333333333334" font-family="Cascadia, Segoe UI Emoji" font-size="11.333331930226295px" fill="#087f5b" text-anchor="start" style="white-space: pre;" direction="ltr"></text><text x="0" y="264.6666666666667" font-family="Cascadia, Segoe UI Emoji" font-size="11.333331930226295px" fill="#087f5b" text-anchor="start" style="white-space: pre;" direction="ltr">+ [GET] item(</text><text x="0" y="278" font-family="Cascadia, Segoe UI Emoji" font-size="11.333331930226295px" fill="#087f5b" text-anchor="start" style="white-space: pre;" direction="ltr">    user,</text><text x="0" y="291.33333333333337" font-family="Cascadia, Segoe UI Emoji" font-size="11.333331930226295px" fill="#087f5b" text-anchor="start" style="white-space: pre;" direction="ltr">    main_category, sub_category, tags,)</text><text x="0" y="304.6666666666667" font-family="Cascadia, Segoe UI Emoji" font-size="11.333331930226295px" fill="#087f5b" text-anchor="start" style="white-space: pre;" direction="ltr"></text><text x="0" y="318" font-family="Cascadia, Segoe UI Emoji" font-size="11.333331930226295px" fill="#087f5b" text-anchor="start" style="white-space: pre;" direction="ltr">+ [GET] all_items(user)</text></g><g stroke-linecap="round" transform="translate(1528.3333409627276 716.5416425069172) rotate(0 79.5 26.5)"><path d="M1.47 0.57 C62.41 -1.79, 122.39 -2.25, 160.28 -0.09 M0.64 -0.28 C49.8 -1.02, 100.28 -0.11, 159.39 0.62 M157.75 -1.92 C157.68 16.4, 157.96 34.43, 159.14 53.28 M158.08 -0.56 C159.18 15.65, 160.08 31.13, 159.59 53.67 M157.98 51.72 C118.11 53.47, 77.99 55.32, -1.99 53.52 M159.13 52.78 C120.03 54.47, 80.86 54.56, 0.34 53.36 M-1.43 51.36 C-1.55 37.49, 1.49 21.53, -1.19 -2 M-0.4 53.79 C-0.33 38.09, -0.39 24.13, 0.03 0.16" stroke="#d9480f" stroke-width="1" fill="none"></path></g><g transform="translate(1533.3333409627276 729.5416425069172) rotate(0 74.5 13.5)"><text x="74.5" y="19" font-family="Virgil, Segoe UI Emoji" font-size="20px" fill="#d9480f" text-anchor="middle" style="white-space: pre;" direction="ltr">Consumer</text></g><g transform="translate(1292.3333867390947 703.7082684834797) rotate(0 84.5 10.5)"><text x="0" y="18" font-family="Cascadia, Segoe UI Emoji" font-size="17.971792069692444px" fill="#c92a2a" text-anchor="start" style="white-space: pre;" direction="ltr">user: {Consumer}</text></g><g transform="translate(545.0001907348633 794.8748474121094) rotate(0 146.5 224)"><text x="0" y="13" font-family="Cascadia, Segoe UI Emoji" font-size="12.806209120639531px" fill="#364fc7" text-anchor="start" style="white-space: pre;" direction="ltr"></text><text x="0" y="29" font-family="Cascadia, Segoe UI Emoji" font-size="12.806209120639531px" fill="#364fc7" text-anchor="start" style="white-space: pre;" direction="ltr">---------</text><text x="0" y="45" font-family="Cascadia, Segoe UI Emoji" font-size="12.806209120639531px" fill="#364fc7" text-anchor="start" style="white-space: pre;" direction="ltr">STORE </text><text x="0" y="61" font-family="Cascadia, Segoe UI Emoji" font-size="12.806209120639531px" fill="#364fc7" text-anchor="start" style="white-space: pre;" direction="ltr">---------</text><text x="0" y="77" font-family="Cascadia, Segoe UI Emoji" font-size="12.806209120639531px" fill="#364fc7" text-anchor="start" style="white-space: pre;" direction="ltr"></text><text x="0" y="93" font-family="Cascadia, Segoe UI Emoji" font-size="12.806209120639531px" fill="#364fc7" text-anchor="start" style="white-space: pre;" direction="ltr">+ [CREATE] store(</text><text x="0" y="109" font-family="Cascadia, Segoe UI Emoji" font-size="12.806209120639531px" fill="#364fc7" text-anchor="start" style="white-space: pre;" direction="ltr">    user,</text><text x="0" y="125" font-family="Cascadia, Segoe UI Emoji" font-size="12.806209120639531px" fill="#364fc7" text-anchor="start" style="white-space: pre;" direction="ltr">    store_information,</text><text x="0" y="141" font-family="Cascadia, Segoe UI Emoji" font-size="12.806209120639531px" fill="#364fc7" text-anchor="start" style="white-space: pre;" direction="ltr">    main_category, sub_category, tags)</text><text x="0" y="157" font-family="Cascadia, Segoe UI Emoji" font-size="12.806209120639531px" fill="#364fc7" text-anchor="start" style="white-space: pre;" direction="ltr"></text><text x="0" y="173" font-family="Cascadia, Segoe UI Emoji" font-size="12.806209120639531px" fill="#364fc7" text-anchor="start" style="white-space: pre;" direction="ltr">+ [UPDATE] store(</text><text x="0" y="189" font-family="Cascadia, Segoe UI Emoji" font-size="12.806209120639531px" fill="#364fc7" text-anchor="start" style="white-space: pre;" direction="ltr">    user,</text><text x="0" y="205" font-family="Cascadia, Segoe UI Emoji" font-size="12.806209120639531px" fill="#364fc7" text-anchor="start" style="white-space: pre;" direction="ltr">    store_id,</text><text x="0" y="221" font-family="Cascadia, Segoe UI Emoji" font-size="12.806209120639531px" fill="#364fc7" text-anchor="start" style="white-space: pre;" direction="ltr">    ...)</text><text x="0" y="237" font-family="Cascadia, Segoe UI Emoji" font-size="12.806209120639531px" fill="#364fc7" text-anchor="start" style="white-space: pre;" direction="ltr"></text><text x="0" y="253" font-family="Cascadia, Segoe UI Emoji" font-size="12.806209120639531px" fill="#364fc7" text-anchor="start" style="white-space: pre;" direction="ltr">+ [DELETE] store(</text><text x="0" y="269" font-family="Cascadia, Segoe UI Emoji" font-size="12.806209120639531px" fill="#364fc7" text-anchor="start" style="white-space: pre;" direction="ltr">    user,</text><text x="0" y="285" font-family="Cascadia, Segoe UI Emoji" font-size="12.806209120639531px" fill="#364fc7" text-anchor="start" style="white-space: pre;" direction="ltr">    store_id,</text><text x="0" y="301" font-family="Cascadia, Segoe UI Emoji" font-size="12.806209120639531px" fill="#364fc7" text-anchor="start" style="white-space: pre;" direction="ltr">    reason,)</text><text x="0" y="317" font-family="Cascadia, Segoe UI Emoji" font-size="12.806209120639531px" fill="#364fc7" text-anchor="start" style="white-space: pre;" direction="ltr"></text><text x="0" y="333" font-family="Cascadia, Segoe UI Emoji" font-size="12.806209120639531px" fill="#364fc7" text-anchor="start" style="white-space: pre;" direction="ltr">+ [GET] store(</text><text x="0" y="349" font-family="Cascadia, Segoe UI Emoji" font-size="12.806209120639531px" fill="#364fc7" text-anchor="start" style="white-space: pre;" direction="ltr">    user,</text><text x="0" y="365" font-family="Cascadia, Segoe UI Emoji" font-size="12.806209120639531px" fill="#364fc7" text-anchor="start" style="white-space: pre;" direction="ltr">    store_id,)</text><text x="0" y="381" font-family="Cascadia, Segoe UI Emoji" font-size="12.806209120639531px" fill="#364fc7" text-anchor="start" style="white-space: pre;" direction="ltr"></text><text x="0" y="397" font-family="Cascadia, Segoe UI Emoji" font-size="12.806209120639531px" fill="#364fc7" text-anchor="start" style="white-space: pre;" direction="ltr">+ [GET] all_stores(</text><text x="0" y="413" font-family="Cascadia, Segoe UI Emoji" font-size="12.806209120639531px" fill="#364fc7" text-anchor="start" style="white-space: pre;" direction="ltr">    user,</text><text x="0" y="429" font-family="Cascadia, Segoe UI Emoji" font-size="12.806209120639531px" fill="#364fc7" text-anchor="start" style="white-space: pre;" direction="ltr">    main_category, sub_category, tags,)</text><text x="0" y="445" font-family="Cascadia, Segoe UI Emoji" font-size="12.806209120639531px" fill="#364fc7" text-anchor="start" style="white-space: pre;" direction="ltr"></text></g><g stroke-linecap="round" transform="translate(538.4168243408203 717.7081451416016) rotate(0 62.83332824707031 29.166702270507812)"><path d="M1.34 -1.27 C44.35 -0.59, 89.66 -1.05, 125.72 0.8 M-1 0.7 C43.11 0.9, 86.51 1, 126.06 -0.33 M125.56 -1.81 C124.08 19.21, 125.19 38.05, 125.5 59.78 M126.5 0.67 C125.36 19.25, 126.12 37.35, 124.84 59.2 M126.18 57.19 C82.54 59.59, 39.17 60.86, 1.83 57.2 M125.98 58.21 C94.78 59.57, 62.68 59.27, -0.53 58.74 M1.96 57.06 C-0.74 37.43, -1.89 20.56, -0.97 -0.83 M0.03 58.45 C-1.02 45.6, -0.04 31.17, 0.4 0.67" stroke="#364fc7" stroke-width="1" fill="none"></path></g><g transform="translate(543.4168243408203 733.3748474121094) rotate(0 57.5 13.5)"><text x="57.5" y="19" font-family="Virgil, Segoe UI Emoji" font-size="20px" fill="#364fc7" text-anchor="middle" style="white-space: pre;" direction="ltr">App Admin</text></g><g stroke-linecap="round"><g transform="translate(668.5418701171875 740.6249618530273) rotate(0 181.17924200855194 -42.43496507242395)"><path d="M-0.92 0.77 C44.88 0.17, 214.19 10.23, 274.89 -4.33 C335.59 -18.89, 348.7 -72.56, 363.28 -86.59 M0.8 0.13 C46.38 -0.72, 213.31 8.89, 273.66 -5.88 C334.02 -20.64, 348.12 -74.78, 362.92 -88.45" stroke="#364fc7" stroke-width="1" fill="none"></path></g><g transform="translate(668.5418701171875 740.6249618530273) rotate(0 181.17924200855194 -42.43496507242395)"><path d="M-1.85 0.54 L14.53 -5.2 L13.7 9.23 L0.81 1.23" stroke="none" stroke-width="0" fill="#364fc7" fill-rule="evenodd"></path><path d="M0.04 0.11 C4.68 -0.05, 8.67 -3.12, 11.51 -6.56 M-1.23 1.27 C3.02 -1.71, 7.46 -3.34, 13.19 -5.13 M12.58 -6.05 C11.48 -0.06, 11.36 2.67, 13.34 7.68 M12.85 -5.07 C13.13 -0.1, 13.04 3.89, 13.12 6.64 M12.18 6.86 C7.58 4.97, 3.97 2.99, -0.2 -0.25 M12.88 6.83 C7.4 5.18, 3.69 3.25, -0.76 0.59 M-0.92 0.77 C-0.92 0.77, -0.92 0.77, -0.92 0.77 M-0.92 0.77 C-0.92 0.77, -0.92 0.77, -0.92 0.77" stroke="#364fc7" stroke-width="1" fill="none"></path></g><g transform="translate(668.5418701171875 740.6249618530273) rotate(0 181.17924200855194 -42.43496507242395)"><path d="M362 -88.69 L362.27 -73.44 L351.12 -78.85 L364.66 -88" stroke="none" stroke-width="0" fill="#364fc7" fill-rule="evenodd"></path><path d="M363.89 -89.11 C363.45 -82.94, 362.47 -79.55, 359.25 -74.8 M362.62 -87.96 C361.52 -84.09, 360.79 -78.98, 360.93 -73.37 M360.32 -74.3 C355.88 -74.99, 352.24 -79.04, 350.76 -80.39 M360.59 -73.31 C356.83 -75.92, 352.8 -79.49, 350.54 -81.43 M349.6 -81.21 C353.61 -83.6, 358.6 -85.96, 363.65 -89.47 M350.3 -81.25 C353.97 -83.26, 359.41 -85.59, 363.09 -88.63 M362.92 -88.45 C362.92 -88.45, 362.92 -88.45, 362.92 -88.45 M362.92 -88.45 C362.92 -88.45, 362.92 -88.45, 362.92 -88.45" stroke="#364fc7" stroke-width="1" fill="none"></path></g></g><g transform="translate(611.2500762939453 573.4582252502441) rotate(0 155.5 9.5)"><text x="0" y="16" font-family="Cascadia, Segoe UI Emoji" font-size="16px" fill="#087f5b" text-anchor="start" style="white-space: pre;" direction="ltr">user: {StoreManager | StoreAdmin}</text></g><g transform="translate(728.7500762939453 711.9999237060547) rotate(0 75.5 9.5)"><text x="0" y="16" font-family="Cascadia, Segoe UI Emoji" font-size="16px" fill="#364fc7" text-anchor="start" style="white-space: pre;" direction="ltr">user: {AppAdmin}</text></g><g transform="translate(924.1667175292969 796.5001525878906) rotate(0 89.66667938232422 190.86942277874857)"><text x="0" y="12.68226329067297" font-family="Cascadia, Segoe UI Emoji" font-size="12.223952344830087px" fill="#364fc7" text-anchor="start" style="white-space: pre;" direction="ltr">-------------</text><text x="0" y="27.36452658134594" font-family="Cascadia, Segoe UI Emoji" font-size="12.223952344830087px" fill="#364fc7" text-anchor="start" style="white-space: pre;" direction="ltr">STORE ADMIN</text><text x="0" y="42.04678987201891" font-family="Cascadia, Segoe UI Emoji" font-size="12.223952344830087px" fill="#364fc7" text-anchor="start" style="white-space: pre;" direction="ltr">-------------</text><text x="0" y="56.72905316269188" font-family="Cascadia, Segoe UI Emoji" font-size="12.223952344830087px" fill="#364fc7" text-anchor="start" style="white-space: pre;" direction="ltr"></text><text x="0" y="71.41131645336486" font-family="Cascadia, Segoe UI Emoji" font-size="12.223952344830087px" fill="#364fc7" text-anchor="start" style="white-space: pre;" direction="ltr">+ [CREATE] store_admin(</text><text x="0" y="86.09357974403783" font-family="Cascadia, Segoe UI Emoji" font-size="12.223952344830087px" fill="#364fc7" text-anchor="start" style="white-space: pre;" direction="ltr">    user,</text><text x="0" y="100.77584303471079" font-family="Cascadia, Segoe UI Emoji" font-size="12.223952344830087px" fill="#364fc7" text-anchor="start" style="white-space: pre;" direction="ltr">    store_id,</text><text x="0" y="115.45810632538377" font-family="Cascadia, Segoe UI Emoji" font-size="12.223952344830087px" fill="#364fc7" text-anchor="start" style="white-space: pre;" direction="ltr">    admin_information,</text><text x="0" y="130.14036961605674" font-family="Cascadia, Segoe UI Emoji" font-size="12.223952344830087px" fill="#364fc7" text-anchor="start" style="white-space: pre;" direction="ltr">    allow_only_one=True,)</text><text x="0" y="144.82263290672972" font-family="Cascadia, Segoe UI Emoji" font-size="12.223952344830087px" fill="#364fc7" text-anchor="start" style="white-space: pre;" direction="ltr"></text><text x="0" y="159.50489619740267" font-family="Cascadia, Segoe UI Emoji" font-size="12.223952344830087px" fill="#364fc7" text-anchor="start" style="white-space: pre;" direction="ltr">+ [UPDATE] store_admin(</text><text x="0" y="174.18715948807565" font-family="Cascadia, Segoe UI Emoji" font-size="12.223952344830087px" fill="#364fc7" text-anchor="start" style="white-space: pre;" direction="ltr">    user,</text><text x="0" y="188.86942277874863" font-family="Cascadia, Segoe UI Emoji" font-size="12.223952344830087px" fill="#364fc7" text-anchor="start" style="white-space: pre;" direction="ltr">    store_id,</text><text x="0" y="203.55168606942158" font-family="Cascadia, Segoe UI Emoji" font-size="12.223952344830087px" fill="#364fc7" text-anchor="start" style="white-space: pre;" direction="ltr">    ...)</text><text x="0" y="218.23394936009456" font-family="Cascadia, Segoe UI Emoji" font-size="12.223952344830087px" fill="#364fc7" text-anchor="start" style="white-space: pre;" direction="ltr"></text><text x="0" y="232.91621265076753" font-family="Cascadia, Segoe UI Emoji" font-size="12.223952344830087px" fill="#364fc7" text-anchor="start" style="white-space: pre;" direction="ltr">+ [DELETE] store_admin(</text><text x="0" y="247.5984759414405" font-family="Cascadia, Segoe UI Emoji" font-size="12.223952344830087px" fill="#364fc7" text-anchor="start" style="white-space: pre;" direction="ltr">    user, </text><text x="0" y="262.2807392321135" font-family="Cascadia, Segoe UI Emoji" font-size="12.223952344830087px" fill="#364fc7" text-anchor="start" style="white-space: pre;" direction="ltr">    store_id)</text><text x="0" y="276.96300252278644" font-family="Cascadia, Segoe UI Emoji" font-size="12.223952344830087px" fill="#364fc7" text-anchor="start" style="white-space: pre;" direction="ltr"></text><text x="0" y="291.64526581345945" font-family="Cascadia, Segoe UI Emoji" font-size="12.223952344830087px" fill="#364fc7" text-anchor="start" style="white-space: pre;" direction="ltr">+ [GET] store_admin(</text><text x="0" y="306.3275291041324" font-family="Cascadia, Segoe UI Emoji" font-size="12.223952344830087px" fill="#364fc7" text-anchor="start" style="white-space: pre;" direction="ltr">    user,</text><text x="0" y="321.00979239480534" font-family="Cascadia, Segoe UI Emoji" font-size="12.223952344830087px" fill="#364fc7" text-anchor="start" style="white-space: pre;" direction="ltr">    store_id)</text><text x="0" y="335.69205568547835" font-family="Cascadia, Segoe UI Emoji" font-size="12.223952344830087px" fill="#364fc7" text-anchor="start" style="white-space: pre;" direction="ltr"></text><text x="0" y="350.3743189761513" font-family="Cascadia, Segoe UI Emoji" font-size="12.223952344830087px" fill="#364fc7" text-anchor="start" style="white-space: pre;" direction="ltr">+ [GE] all_store_admins(</text><text x="0" y="365.05658226682425" font-family="Cascadia, Segoe UI Emoji" font-size="12.223952344830087px" fill="#364fc7" text-anchor="start" style="white-space: pre;" direction="ltr">    user,</text><text x="0" y="379.73884555749726" font-family="Cascadia, Segoe UI Emoji" font-size="12.223952344830087px" fill="#364fc7" text-anchor="start" style="white-space: pre;" direction="ltr">    store_id,)</text></g><g transform="translate(1047.7084350585938 492.04156494140625) rotate(0 53 22.5)"><text x="0" y="18.5" font-family="Helvetica, Segoe UI Emoji" font-size="20px" fill="#000000" text-anchor="start" style="white-space: pre;" direction="ltr">HIGHLY</text><text x="0" y="41" font-family="Helvetica, Segoe UI Emoji" font-size="20px" fill="#000000" text-anchor="start" style="white-space: pre;" direction="ltr">AVAILABLE</text></g><g transform="translate(926.8751525878906 1200.4163360595703) rotate(0 364.83335876464844 100.66061715579133)"><text x="0" y="12.380088165113047" font-family="Cascadia, Segoe UI Emoji" font-size="12.326889261570196px" fill="#364fc7" text-anchor="start" style="white-space: pre;" direction="ltr">--------</text><text x="0" y="26.760176330226095" font-family="Cascadia, Segoe UI Emoji" font-size="12.326889261570196px" fill="#364fc7" text-anchor="start" style="white-space: pre;" direction="ltr">FILTERS</text><text x="0" y="41.14026449533914" font-family="Cascadia, Segoe UI Emoji" font-size="12.326889261570196px" fill="#364fc7" text-anchor="start" style="white-space: pre;" direction="ltr">--------</text><text x="0" y="55.52035266045219" font-family="Cascadia, Segoe UI Emoji" font-size="12.326889261570196px" fill="#364fc7" text-anchor="start" style="white-space: pre;" direction="ltr">user: AppAdmin | StoreAdmin | StoreManager</text><text x="0" y="69.90044082556524" font-family="Cascadia, Segoe UI Emoji" font-size="12.326889261570196px" fill="#364fc7" text-anchor="start" style="white-space: pre;" direction="ltr"></text><text x="0" y="84.28052899067828" font-family="Cascadia, Segoe UI Emoji" font-size="12.326889261570196px" fill="#364fc7" text-anchor="start" style="white-space: pre;" direction="ltr">+ [CREATE] categories(user, new_category_name, kind={main|sub}, for={item|store|supplier|consumer|})</text><text x="0" y="98.66061715579133" font-family="Cascadia, Segoe UI Emoji" font-size="12.326889261570196px" fill="#364fc7" text-anchor="start" style="white-space: pre;" direction="ltr">+ [UPDATE] categories(user, old_name, new_name, kind={main|sub}, for={item|store|supplier|consumer|})</text><text x="0" y="113.04070532090438" font-family="Cascadia, Segoe UI Emoji" font-size="12.326889261570196px" fill="#364fc7" text-anchor="start" style="white-space: pre;" direction="ltr">+ [DELETE] categories(user, category_name, kind={main|sub}, for={item|store|supplier|consumer|})</text><text x="0" y="127.42079348601743" font-family="Cascadia, Segoe UI Emoji" font-size="12.326889261570196px" fill="#364fc7" text-anchor="start" style="white-space: pre;" direction="ltr">+ [GET] categories()</text><text x="0" y="141.80088165113048" font-family="Cascadia, Segoe UI Emoji" font-size="12.326889261570196px" fill="#364fc7" text-anchor="start" style="white-space: pre;" direction="ltr"></text><text x="0" y="156.18096981624353" font-family="Cascadia, Segoe UI Emoji" font-size="12.326889261570196px" fill="#364fc7" text-anchor="start" style="white-space: pre;" direction="ltr">+ [CREATE] tag(user, new_tag_key, new_tag_value, for={item|store|supplier|consumer|})</text><text x="0" y="170.56105798135656" font-family="Cascadia, Segoe UI Emoji" font-size="12.326889261570196px" fill="#364fc7" text-anchor="start" style="white-space: pre;" direction="ltr">+ [UPDATE] tag(user, new_tag_key, new_tag_value, for={item|store|supplier|consumer|})</text><text x="0" y="184.9411461464696" font-family="Cascadia, Segoe UI Emoji" font-size="12.326889261570196px" fill="#364fc7" text-anchor="start" style="white-space: pre;" direction="ltr">+ [DELETE] tag(user, tag_key, for={item|store|supplier|consumer|})</text><text x="0" y="199.32123431158266" font-family="Cascadia, Segoe UI Emoji" font-size="12.326889261570196px" fill="#364fc7" text-anchor="start" style="white-space: pre;" direction="ltr">+ [GET] tags()</text></g><g stroke-linecap="round"><g transform="translate(1515.4166412353516 742.6288250860537) rotate(0 -193.2354319518804 -45.6573607816195)"><path d="M-0.62 -0.9 C-46.37 -2.72, -209.61 4.48, -274.07 -10.5 C-338.54 -25.47, -368.45 -77.26, -387.43 -90.73 M1.25 1.25 C-44.15 -0.46, -206.92 6.39, -271.75 -9.26 C-336.58 -24.91, -368.44 -79.15, -387.72 -92.63" stroke="#c92a2a" stroke-width="1" fill="none"></path></g><g transform="translate(1515.4166412353516 742.6288250860537) rotate(0 -193.2354319518804 -45.6573607816195)"><path d="M-0.54 -0.57 L-13.46 3.95 L-13.1 -9.07 L0.77 -1.25" stroke="none" stroke-width="0" fill="#c92a2a" fill-rule="evenodd"></path><path d="M-1.74 -1.82 C-5.89 2.26, -8.68 3.72, -13.97 4.43 M-1.11 -0.62 C-5.36 1.58, -9.52 3.7, -14.2 5.29 M-14.69 5.08 C-14.25 -0.16, -14.93 -2.09, -14.56 -8.13 M-14.68 5.17 C-14.11 0.79, -14.06 -4.66, -13.73 -7.53 M-14.27 -8.54 C-10.69 -4.15, -4.03 -3.65, -0.35 -2.11 M-14.09 -7.82 C-10.93 -5.54, -6.13 -3.91, -0.21 -0.67 M-0.62 -0.9 C-0.62 -0.9, -0.62 -0.9, -0.62 -0.9 M-0.62 -0.9 C-0.62 -0.9, -0.62 -0.9, -0.62 -0.9" stroke="#c92a2a" stroke-width="1" fill="none"></path></g><g transform="translate(1515.4166412353516 742.6288250860537) rotate(0 -193.2354319518804 -45.6573607816195)"><path d="M-387.65 -92.3 L-372.79 -89 L-381.41 -80.31 L-386.33 -92.98" stroke="none" stroke-width="0" fill="#c92a2a" fill-rule="evenodd"></path><path d="M-388.84 -93.56 C-383.68 -89.74, -377.16 -88.68, -373.31 -88.52 M-388.21 -92.36 C-383.55 -90.52, -378.81 -88.79, -373.53 -87.67 M-374.02 -87.88 C-376.85 -85.61, -380.6 -80.11, -382.88 -79.38 M-374.02 -87.79 C-376.87 -83.74, -380.3 -80.76, -382.05 -78.77 M-382.58 -79.79 C-385.23 -82.16, -384.74 -88.38, -387.45 -93.84 M-382.4 -79.07 C-384.49 -82.4, -384.95 -86.51, -387.31 -92.4 M-387.72 -92.63 C-387.72 -92.63, -387.72 -92.63, -387.72 -92.63 M-387.72 -92.63 C-387.72 -92.63, -387.72 -92.63, -387.72 -92.63" stroke="#c92a2a" stroke-width="1" fill="none"></path></g></g><g transform="translate(10 572.2915649414062) rotate(0 86.5 166.5)"><text x="0" y="11.32" font-family="Cascadia, Segoe UI Emoji" font-size="11.347222646077483px" fill="#087f5b" text-anchor="start" style="white-space: pre;" direction="ltr">---------------</text><text x="0" y="24.64" font-family="Cascadia, Segoe UI Emoji" font-size="11.347222646077483px" fill="#087f5b" text-anchor="start" style="white-space: pre;" direction="ltr">STORE MANAGER</text><text x="0" y="37.96" font-family="Cascadia, Segoe UI Emoji" font-size="11.347222646077483px" fill="#087f5b" text-anchor="start" style="white-space: pre;" direction="ltr">---------------</text><text x="0" y="51.28" font-family="Cascadia, Segoe UI Emoji" font-size="11.347222646077483px" fill="#087f5b" text-anchor="start" style="white-space: pre;" direction="ltr">user: StoreAdmin</text><text x="0" y="64.6" font-family="Cascadia, Segoe UI Emoji" font-size="11.347222646077483px" fill="#087f5b" text-anchor="start" style="white-space: pre;" direction="ltr"></text><text x="0" y="77.92" font-family="Cascadia, Segoe UI Emoji" font-size="11.347222646077483px" fill="#087f5b" text-anchor="start" style="white-space: pre;" direction="ltr">+ [CREATE] store_manager(</text><text x="0" y="91.24000000000001" font-family="Cascadia, Segoe UI Emoji" font-size="11.347222646077483px" fill="#087f5b" text-anchor="start" style="white-space: pre;" direction="ltr">    user,</text><text x="0" y="104.56" font-family="Cascadia, Segoe UI Emoji" font-size="11.347222646077483px" fill="#087f5b" text-anchor="start" style="white-space: pre;" direction="ltr">    manager_information</text><text x="0" y="117.88" font-family="Cascadia, Segoe UI Emoji" font-size="11.347222646077483px" fill="#087f5b" text-anchor="start" style="white-space: pre;" direction="ltr">    allow_only_one=False,)</text><text x="0" y="131.2" font-family="Cascadia, Segoe UI Emoji" font-size="11.347222646077483px" fill="#087f5b" text-anchor="start" style="white-space: pre;" direction="ltr"></text><text x="0" y="144.52" font-family="Cascadia, Segoe UI Emoji" font-size="11.347222646077483px" fill="#087f5b" text-anchor="start" style="white-space: pre;" direction="ltr">+ [UPDATE] store_manager(</text><text x="0" y="157.84" font-family="Cascadia, Segoe UI Emoji" font-size="11.347222646077483px" fill="#087f5b" text-anchor="start" style="white-space: pre;" direction="ltr">    user,</text><text x="0" y="171.16" font-family="Cascadia, Segoe UI Emoji" font-size="11.347222646077483px" fill="#087f5b" text-anchor="start" style="white-space: pre;" direction="ltr">    ...)</text><text x="0" y="184.48000000000002" font-family="Cascadia, Segoe UI Emoji" font-size="11.347222646077483px" fill="#087f5b" text-anchor="start" style="white-space: pre;" direction="ltr"></text><text x="0" y="197.8" font-family="Cascadia, Segoe UI Emoji" font-size="11.347222646077483px" fill="#087f5b" text-anchor="start" style="white-space: pre;" direction="ltr">+ [DELETE] store_manager(</text><text x="0" y="211.12" font-family="Cascadia, Segoe UI Emoji" font-size="11.347222646077483px" fill="#087f5b" text-anchor="start" style="white-space: pre;" direction="ltr">    user, </text><text x="0" y="224.44" font-family="Cascadia, Segoe UI Emoji" font-size="11.347222646077483px" fill="#087f5b" text-anchor="start" style="white-space: pre;" direction="ltr">    manager_id,</text><text x="0" y="237.76" font-family="Cascadia, Segoe UI Emoji" font-size="11.347222646077483px" fill="#087f5b" text-anchor="start" style="white-space: pre;" direction="ltr">    )</text><text x="0" y="251.08" font-family="Cascadia, Segoe UI Emoji" font-size="11.347222646077483px" fill="#087f5b" text-anchor="start" style="white-space: pre;" direction="ltr"></text><text x="0" y="264.4" font-family="Cascadia, Segoe UI Emoji" font-size="11.347222646077483px" fill="#087f5b" text-anchor="start" style="white-space: pre;" direction="ltr">+ [GET] store_manager(</text><text x="0" y="277.72" font-family="Cascadia, Segoe UI Emoji" font-size="11.347222646077483px" fill="#087f5b" text-anchor="start" style="white-space: pre;" direction="ltr">    user,</text><text x="0" y="291.04" font-family="Cascadia, Segoe UI Emoji" font-size="11.347222646077483px" fill="#087f5b" text-anchor="start" style="white-space: pre;" direction="ltr">    store_id)</text><text x="0" y="304.36" font-family="Cascadia, Segoe UI Emoji" font-size="11.347222646077483px" fill="#087f5b" text-anchor="start" style="white-space: pre;" direction="ltr"></text><text x="0" y="317.68" font-family="Cascadia, Segoe UI Emoji" font-size="11.347222646077483px" fill="#087f5b" text-anchor="start" style="white-space: pre;" direction="ltr">+ [GE] all_store_managers(</text><text x="0" y="331" font-family="Cascadia, Segoe UI Emoji" font-size="11.347222646077483px" fill="#087f5b" text-anchor="start" style="white-space: pre;" direction="ltr">    user,)</text></g><g transform="translate(497.29164123535156 1263.7499237060547) rotate(0 190.5 64)"><text x="0" y="13" font-family="Cascadia, Segoe UI Emoji" font-size="13.285403701325897px" fill="#364fc7" text-anchor="start" style="white-space: pre;" direction="ltr">----------</text><text x="0" y="29" font-family="Cascadia, Segoe UI Emoji" font-size="13.285403701325897px" fill="#364fc7" text-anchor="start" style="white-space: pre;" direction="ltr">AppAdmin</text><text x="0" y="45" font-family="Cascadia, Segoe UI Emoji" font-size="13.285403701325897px" fill="#364fc7" text-anchor="start" style="white-space: pre;" direction="ltr">----------</text><text x="0" y="61" font-family="Cascadia, Segoe UI Emoji" font-size="13.285403701325897px" fill="#364fc7" text-anchor="start" style="white-space: pre;" direction="ltr"></text><text x="0" y="77" font-family="Cascadia, Segoe UI Emoji" font-size="13.285403701325897px" fill="#364fc7" text-anchor="start" style="white-space: pre;" direction="ltr">+ [CREATE] app_admin(user, app_admin_information)</text><text x="0" y="93" font-family="Cascadia, Segoe UI Emoji" font-size="13.285403701325897px" fill="#364fc7" text-anchor="start" style="white-space: pre;" direction="ltr">+ [UPDATE] app_admin(user, ...)</text><text x="0" y="109" font-family="Cascadia, Segoe UI Emoji" font-size="13.285403701325897px" fill="#364fc7" text-anchor="start" style="white-space: pre;" direction="ltr">+ [DELETE] app_admin(user, app_admin_id)</text><text x="0" y="125" font-family="Cascadia, Segoe UI Emoji" font-size="13.285403701325897px" fill="#364fc7" text-anchor="start" style="white-space: pre;" direction="ltr">+ [GET] all_app_admins(user)</text></g><g stroke-linecap="round" transform="translate(1534.6666412353516 591.2917556762695) rotate(0 79.5 26.5)"><path d="M-0.52 1.22 C53.52 2.8, 101.95 3.26, 159.08 1.53 M0.66 -0.82 C57.61 1.02, 115.94 1.71, 159.99 -0.51 M158.63 1.63 C160.93 14.94, 160.44 27.95, 158.47 51.1 M158.64 0.66 C158.33 19.88, 159.11 40.16, 159.47 53.81 M160.61 54.95 C124.62 53.37, 88.77 52.36, 1.47 54.04 M159.72 52.58 C96.64 52.17, 35.77 52.1, -0.11 53.54 M-0.07 53.78 C-1.91 37.64, -0.69 20.01, -0.35 -1.17 M0.28 52.6 C-0.7 41.1, -0.08 31.03, -0.8 -0.41" stroke="#862e9c" stroke-width="1" fill="none"></path></g><g transform="translate(1539.6666412353516 604.2917556762695) rotate(0 74.5 13.5)"><text x="74.5" y="19" font-family="Virgil, Segoe UI Emoji" font-size="20px" fill="#862e9c" text-anchor="middle" style="white-space: pre;" direction="ltr">Supplier</text></g><g stroke-linecap="round"><g transform="translate(1522.5000762939453 616.5412070172166) rotate(0 -198.3450511628203 -1.2138355362427546)"><path d="M-0.87 0.7 C-20.48 0.64, -52.68 0.09, -118.76 -0.24 C-184.83 -0.57, -350.69 -1.08, -397.33 -1.26 M0.88 0.02 C-18.83 0.07, -53.52 1.34, -119.93 0.78 C-186.34 0.21, -351.15 -3.22, -397.57 -3.34" stroke="#862e9c" stroke-width="1" fill="none"></path></g><g transform="translate(1522.5000762939453 616.5412070172166) rotate(0 -198.3450511628203 -1.2138355362427546)"><path d="M0.06 -0.89 L-16.35 6.26 L-15.45 -4.35 L-1.76 1.44" stroke="none" stroke-width="0" fill="#862e9c" fill-rule="evenodd"></path><path d="M0.01 0.17 C-4.95 3.16, -5.96 2.89, -13.98 6.63 M-1.56 0.18 C-3.11 1.46, -6.67 3.98, -13.86 7.16 M-13.92 7.96 C-15.05 3.11, -15.32 1.69, -14.68 -5.72 M-13.9 6.52 C-14.78 2.61, -15.04 -0.75, -14.03 -5.24 M-14.79 -6.92 C-8.47 -3.24, -3.81 -1.47, 0.33 1.81 M-14.87 -5.06 C-8.34 -3.47, -3.13 -0.63, -1.42 0.58 M-0.87 0.7 C-0.87 0.7, -0.87 0.7, -0.87 0.7 M-0.87 0.7 C-0.87 0.7, -0.87 0.7, -0.87 0.7" stroke="#862e9c" stroke-width="1" fill="none"></path></g><g transform="translate(1522.5000762939453 616.5412070172166) rotate(0 -198.3450511628203 -1.2138355362427546)"><path d="M-396.64 -4.94 L-385.73 -10.17 L-385.1 4.57 L-398.46 -2.6" stroke="none" stroke-width="0" fill="#862e9c" fill-rule="evenodd"></path><path d="M-396.69 -3.87 C-395.96 -3.28, -391.24 -6.14, -383.36 -9.81 M-398.26 -3.87 C-393.96 -5.28, -391.73 -5.39, -383.24 -9.27 M-383.3 -8.47 C-384.55 -7.01, -384.9 -2.13, -384.33 3.2 M-383.28 -9.92 C-384.03 -5.7, -384.38 -0.93, -383.68 3.68 M-384.44 2 C-388.22 0.99, -393.53 -2.02, -396.37 -2.23 M-384.52 3.87 C-388.75 0.52, -394.18 -1.74, -398.12 -3.46 M-397.57 -3.34 C-397.57 -3.34, -397.57 -3.34, -397.57 -3.34 M-397.57 -3.34 C-397.57 -3.34, -397.57 -3.34, -397.57 -3.34" stroke="#862e9c" stroke-width="1" fill="none"></path></g></g><g stroke-opacity="0.4" fill-opacity="0.4" transform="translate(320.0000762939453 476.2499046325686) rotate(0 90 11.5)"><text x="0" y="18" font-family="Helvetica, Segoe UI Emoji" font-size="20px" fill="#000000" text-anchor="start" style="white-space: pre;" direction="ltr">MOST IMPORTANT</text></g><g stroke-linecap="round"><g stroke-opacity="0.4" fill-opacity="0.4" transform="translate(295.0000762939453 486.2499237060549) rotate(0 -22.57017480666339 43.75352172909305)"><path d="M1.11 0.85 C-6.19 3.01, -38.97 -1.18, -44.88 13.09 C-50.79 27.36, -36.43 74.07, -34.35 86.48 M0.24 0.25 C-6.59 2.5, -37.17 -0.44, -42.54 14.06 C-47.91 28.57, -33.81 74.83, -32 87.26" stroke="#000000" stroke-width="1" fill="none"></path></g><g stroke-opacity="0.4" fill-opacity="0.4" transform="translate(295.0000762939453 486.2499237060549) rotate(0 -22.57017480666339 43.75352172909305)"><path d="M-46.67 60.75 C-46.43 65.47, -42.92 74.08, -31.97 87.12 M-47.98 60.98 C-44.88 68.71, -39.15 75.37, -32.13 86.95" stroke="#000000" stroke-width="1" fill="none"></path></g><g stroke-opacity="0.4" fill-opacity="0.4" transform="translate(295.0000762939453 486.2499237060549) rotate(0 -22.57017480666339 43.75352172909305)"><path d="M-26.63 56.34 C-30.65 62.18, -31.39 71.73, -31.97 87.12 M-27.94 56.56 C-30.22 65.35, -29.84 73.18, -32.13 86.95" stroke="#000000" stroke-width="1" fill="none"></path></g></g><g transform="translate(1357.9167938232422 935.0415267944338) rotate(0 172.92408660659225 59.89297791322076)"><text x="0" y="12.973244478305187" font-family="Cascadia, Segoe UI Emoji" font-size="12.264119617488806px" fill="#c92a2a" text-anchor="start" style="white-space: pre;" direction="ltr">------------</text><text x="0" y="27.946488956610374" font-family="Cascadia, Segoe UI Emoji" font-size="12.264119617488806px" fill="#c92a2a" text-anchor="start" style="white-space: pre;" direction="ltr">FAVOURITES</text><text x="0" y="42.91973343491556" font-family="Cascadia, Segoe UI Emoji" font-size="12.264119617488806px" fill="#c92a2a" text-anchor="start" style="white-space: pre;" direction="ltr">------------</text><text x="0" y="57.89297791322075" font-family="Cascadia, Segoe UI Emoji" font-size="12.264119617488806px" fill="#c92a2a" text-anchor="start" style="white-space: pre;" direction="ltr"></text><text x="0" y="72.86622239152594" font-family="Cascadia, Segoe UI Emoji" font-size="12.264119617488806px" fill="#c92a2a" text-anchor="start" style="white-space: pre;" direction="ltr">+ [CREATE] favourite(user, store_id, item_id) </text><text x="0" y="87.83946686983111" font-family="Cascadia, Segoe UI Emoji" font-size="12.264119617488806px" fill="#c92a2a" text-anchor="start" style="white-space: pre;" direction="ltr">+ [DELETE] favourite(user, store_id, item_id)</text><text x="0" y="102.8127113481363" font-family="Cascadia, Segoe UI Emoji" font-size="12.264119617488806px" fill="#c92a2a" text-anchor="start" style="white-space: pre;" direction="ltr">+ [GET] favourites(user, store_id=null}</text><text x="0" y="117.7859558264415" font-family="Cascadia, Segoe UI Emoji" font-size="12.264119617488806px" fill="#c92a2a" text-anchor="start" style="white-space: pre;" direction="ltr">+ [GET] is_favourite(user_id, store_id, item_id)</text></g><g stroke-linecap="round" transform="translate(458.625 143.9166412353518) rotate(0 84.5 26.5)"><path d="M-1.05 -1.27 C48.72 0.6, 95.96 -1.09, 170.4 -1.67 M-0.15 0.33 C44.12 0.57, 87.95 1.93, 169.16 -0.22 M169.94 1.29 C171.03 18.79, 167.99 38.85, 169.87 53.97 M169.67 0.4 C168.68 21.48, 169.25 41.33, 169.24 53.78 M170.13 54.92 C102.19 51.92, 33.96 52.26, -1.24 52.67 M169.44 53.89 C121.48 51.1, 75.32 50.71, -0.5 53.58 M-1.05 51.55 C2.07 33.3, -0.3 16.51, 0.77 -1.98 M0.09 53.11 C0.4 41.24, -0.16 30.29, -0.71 0.33" stroke="#495057" stroke-width="1" fill="none"></path></g><g transform="translate(463.625 159.9166412353518) rotate(0 79.5 10.5)"><text x="79.5" y="14" font-family="Virgil, Segoe UI Emoji" font-size="16px" fill="#495057" text-anchor="middle" style="white-space: pre;" direction="ltr">App Admin(s*)</text></g><g stroke-linecap="round" transform="translate(453.6250762939453 213.50000000000023) rotate(0 86.16664123535158 26.5)"><path d="M-1.71 1.97 C42.81 1.86, 84.93 2.03, 170.38 -0.91 M0.48 -0.57 C66.08 0.74, 131.03 0.16, 173.14 -0.75 M173.76 0.87 C172.16 12.84, 174.02 27.92, 171.17 51.16 M173.11 -0.19 C173.04 18.36, 172.2 38.66, 172.13 53.59 M172.09 52.26 C125.38 53.27, 79.54 53.02, 0.62 51.13 M172.75 53.19 C113.55 54.27, 55.49 53.69, -0.31 53.46 M1.48 54.41 C2.29 35.42, -1.33 13.11, 0.49 0.9 M0.5 52.72 C0.38 39.18, -0.03 25.44, -0.69 -0.24" stroke="#495057" stroke-width="1" fill="none"></path></g><g transform="translate(458.6250762939453 229.50000000000023) rotate(0 81.16664123535158 10.5)"><text x="81.16664123535158" y="14" font-family="Virgil, Segoe UI Emoji" font-size="16px" fill="#495057" text-anchor="middle" style="white-space: pre;" direction="ltr">...</text></g><g transform="translate(1234.7916412353516 810.2082824707034) rotate(0 146.5 56)"><text x="0" y="13" font-family="Cascadia, Segoe UI Emoji" font-size="12.815460939636916px" fill="#c92a2a" text-anchor="start" style="white-space: pre;" direction="ltr">-------</text><text x="0" y="29" font-family="Cascadia, Segoe UI Emoji" font-size="12.815460939636916px" fill="#c92a2a" text-anchor="start" style="white-space: pre;" direction="ltr">LIST</text><text x="0" y="45" font-family="Cascadia, Segoe UI Emoji" font-size="12.815460939636916px" fill="#c92a2a" text-anchor="start" style="white-space: pre;" direction="ltr">-------</text><text x="0" y="61" font-family="Cascadia, Segoe UI Emoji" font-size="12.815460939636916px" fill="#c92a2a" text-anchor="start" style="white-space: pre;" direction="ltr"></text><text x="0" y="77" font-family="Cascadia, Segoe UI Emoji" font-size="12.815460939636916px" fill="#c92a2a" text-anchor="start" style="white-space: pre;" direction="ltr">+ [GET] all_items(user)</text><text x="0" y="93" font-family="Cascadia, Segoe UI Emoji" font-size="12.815460939636916px" fill="#c92a2a" text-anchor="start" style="white-space: pre;" direction="ltr">+ [GET] all_store_items(user, store_id)</text><text x="0" y="109" font-family="Cascadia, Segoe UI Emoji" font-size="12.815460939636916px" fill="#c92a2a" text-anchor="start" style="white-space: pre;" direction="ltr">+ [GET] full_details(item_id)</text></g><g transform="translate(1495.0000762939453 1067.7082824707034) rotate(0 230.5 80)"><text x="0" y="13" font-family="Cascadia, Segoe UI Emoji" font-size="13.327010152914502px" fill="#c92a2a" text-anchor="start" style="white-space: pre;" direction="ltr">-------</text><text x="0" y="29" font-family="Cascadia, Segoe UI Emoji" font-size="13.327010152914502px" fill="#c92a2a" text-anchor="start" style="white-space: pre;" direction="ltr">ORDERS</text><text x="0" y="45" font-family="Cascadia, Segoe UI Emoji" font-size="13.327010152914502px" fill="#c92a2a" text-anchor="start" style="white-space: pre;" direction="ltr">-------</text><text x="0" y="61" font-family="Cascadia, Segoe UI Emoji" font-size="13.327010152914502px" fill="#c92a2a" text-anchor="start" style="white-space: pre;" direction="ltr"></text><text x="0" y="77" font-family="Cascadia, Segoe UI Emoji" font-size="13.327010152914502px" fill="#c92a2a" text-anchor="start" style="white-space: pre;" direction="ltr">+ [CREATE] order(user, item_id, store_id, supplier_id)</text><text x="0" y="93" font-family="Cascadia, Segoe UI Emoji" font-size="13.327010152914502px" fill="#c92a2a" text-anchor="start" style="white-space: pre;" direction="ltr">+ [UPDATE] order(user, item_id, store_id, supplier_id, ...)</text><text x="0" y="109" font-family="Cascadia, Segoe UI Emoji" font-size="13.327010152914502px" fill="#c92a2a" text-anchor="start" style="white-space: pre;" direction="ltr">+ [DETELE] order(user, order_id)</text><text x="0" y="125" font-family="Cascadia, Segoe UI Emoji" font-size="13.327010152914502px" fill="#c92a2a" text-anchor="start" style="white-space: pre;" direction="ltr">+ [GET] order(user, item_id, store_id)</text><text x="0" y="141" font-family="Cascadia, Segoe UI Emoji" font-size="13.327010152914502px" fill="#c92a2a" text-anchor="start" style="white-space: pre;" direction="ltr">+ [GET] all_orders(user)</text><text x="0" y="157" font-family="Cascadia, Segoe UI Emoji" font-size="13.327010152914502px" fill="#c92a2a" text-anchor="start" style="white-space: pre;" direction="ltr">+ [GET] status(user, item_id, store_id, supplier_id)</text></g><g transform="translate(1731.5000762939453 581.4166030883791) rotate(0 227 41.5)"><text x="0" y="13.600000000000001" font-family="Cascadia, Segoe UI Emoji" font-size="13.5534639178582px" fill="#862e9c" text-anchor="start" style="white-space: pre;" direction="ltr">----------</text><text x="0" y="30.200000000000003" font-family="Cascadia, Segoe UI Emoji" font-size="13.5534639178582px" fill="#862e9c" text-anchor="start" style="white-space: pre;" direction="ltr">DELIVER</text><text x="0" y="46.800000000000004" font-family="Cascadia, Segoe UI Emoji" font-size="13.5534639178582px" fill="#862e9c" text-anchor="start" style="white-space: pre;" direction="ltr">----------</text><text x="0" y="63.400000000000006" font-family="Cascadia, Segoe UI Emoji" font-size="13.5534639178582px" fill="#862e9c" text-anchor="start" style="white-space: pre;" direction="ltr">+ [GET] deliveries(user)</text><text x="0" y="80" font-family="Cascadia, Segoe UI Emoji" font-size="13.5534639178582px" fill="#862e9c" text-anchor="start" style="white-space: pre;" direction="ltr">+ [UPDATE] delievry(user, shop_id, item_id, user_id, ...)</text></g><g transform="translate(1236.7500762939453 576.5832824707034) rotate(0 84.5 10.5)"><text x="0" y="18" font-family="Cascadia, Segoe UI Emoji" font-size="17.971792069692444px" fill="#862e9c" text-anchor="start" style="white-space: pre;" direction="ltr">user: {Supplier}</text></g><g stroke-opacity="0.3" fill-opacity="0.3" transform="translate(1228.208511352539 1061.2083969116213) rotate(48.38616297486905 46.5 9.5)"><text x="0" y="15" font-family="Helvetica, Segoe UI Emoji" font-size="16px" fill="#000000" text-anchor="start" style="white-space: pre;" direction="ltr">MOVEMENT</text></g><g stroke-linecap="round"><g stroke-opacity="0.3" fill-opacity="0.3" transform="translate(1168.5417938232422 920.6249237060549) rotate(0 139.27702868096532 150.37854033112524)"><path d="M-0.32 0.2 C46.03 50.3, 232.46 250.34, 278.87 300.55 M1.72 -0.75 C47.81 49.47, 231.3 250.93, 277.77 301.5" stroke="#000000" stroke-width="1" fill="none"></path></g><g stroke-opacity="0.3" fill-opacity="0.3" transform="translate(1168.5417938232422 920.6249237060549) rotate(0 139.27702868096532 150.37854033112524)"><path d="M279.29 299.8 L264.79 297.04 L272.99 287.59 L276.33 300.25" stroke="none" stroke-width="0" fill="#000000" fill-rule="evenodd"></path><path d="M278.01 301.13 C271.3 298.1, 267.37 297.49, 265.08 294.46 M277.36 301.5 C273.63 298.83, 268.4 297.92, 264.62 295.86 M264.37 296.17 C268.4 292.19, 270.94 289.85, 272.63 286.76 M263.94 296.04 C266.34 294.24, 268.15 291.12, 272.81 286.74 M274.19 286.65 C274.69 292.27, 277.16 297.29, 278.2 301.28 M273.98 287.61 C274.51 292.28, 276.82 296.15, 277.2 301.62 M277.77 301.5 C277.77 301.5, 277.77 301.5, 277.77 301.5 M277.77 301.5 C277.77 301.5, 277.77 301.5, 277.77 301.5" stroke="#000000" stroke-width="1" fill="none"></path></g></g><g transform="translate(1725.083511352539 709.5832824707034) rotate(0 289.5 58.5)"><text x="0" y="13.714285714285715" font-family="Cascadia, Segoe UI Emoji" font-size="13.73195876288659px" fill="#c92a2a" text-anchor="start" style="white-space: pre;" direction="ltr">---------</text><text x="0" y="30.42857142857143" font-family="Cascadia, Segoe UI Emoji" font-size="13.73195876288659px" fill="#c92a2a" text-anchor="start" style="white-space: pre;" direction="ltr">REVIEW</text><text x="0" y="47.142857142857146" font-family="Cascadia, Segoe UI Emoji" font-size="13.73195876288659px" fill="#c92a2a" text-anchor="start" style="white-space: pre;" direction="ltr">---------</text><text x="0" y="63.85714285714286" font-family="Cascadia, Segoe UI Emoji" font-size="13.73195876288659px" fill="#c92a2a" text-anchor="start" style="white-space: pre;" direction="ltr"></text><text x="0" y="80.57142857142858" font-family="Cascadia, Segoe UI Emoji" font-size="13.73195876288659px" fill="#c92a2a" text-anchor="start" style="white-space: pre;" direction="ltr">+ [CREATE] review(user, store_id, product_id, for={supplier|store|item})</text><text x="0" y="97.28571428571429" font-family="Cascadia, Segoe UI Emoji" font-size="13.73195876288659px" fill="#c92a2a" text-anchor="start" style="white-space: pre;" direction="ltr">+ [UPDATE] review(user, review_id, for={supplier|store|item})</text><text x="0" y="114" font-family="Cascadia, Segoe UI Emoji" font-size="13.73195876288659px" fill="#c92a2a" text-anchor="start" style="white-space: pre;" direction="ltr">+ [DELETE] review(user, review_id)</text></g></svg>